<?xml version="1.0" encoding="UTF-8" standalone="no"?>
<!DOCTYPE svg PUBLIC "-//W3C//DTD SVG 1.1//EN"
 "http://www.w3.org/Graphics/SVG/1.1/DTD/svg11.dtd">
<!-- Generated by graphviz version 2.44.0 (0)
 -->
<!-- Title: OpenShift Certificates Pages: 1 -->
<svg width="18877pt" height="585pt"
 viewBox="0.00 0.00 18877.17 584.87" xmlns="http://www.w3.org/2000/svg" xmlns:xlink="http://www.w3.org/1999/xlink">
<g id="graph0" class="graph" transform="scale(1 1) rotate(0) translate(4 580.87)">
<title>OpenShift Certificates</title>
<polygon fill="white" stroke="transparent" points="-4,4 -4,-580.87 18873.17,-580.87 18873.17,4 -4,4"/>
<!-- 0 -->
<g id="node1" class="node">
<title>0</title>
<ellipse fill="#c7bfff" stroke="black" cx="6595.57" cy="-405.11" rx="338.91" ry="38.37"/>
<text text-anchor="middle" x="6595.57" y="-416.91" font-family="Times-Roman" font-size="14.00">certkeypair/kube&#45;control&#45;plane&#45;signer</text>
<text text-anchor="middle" x="6595.57" y="-385.91" font-family="Times-Roman" font-size="14.00">secret/kube&#45;control&#45;plane&#45;signer &#45;nopenshift&#45;kube&#45;apiserver&#45;operator</text>
</g>
<!-- 1 -->
<g id="node2" class="node">
<title>1</title>
<ellipse fill="#c8fbcd" stroke="black" cx="6595.57" cy="-154.86" rx="1120.53" ry="59.29"/>
<text text-anchor="middle" x="6595.57" y="-181.66" font-family="Times-Roman" font-size="14.00">certkeypair/kube&#45;scheduler&#45;client</text>
<text text-anchor="middle" x="6595.57" y="-150.66" font-family="Times-Roman" font-size="14.00">secret/kube&#45;scheduler&#45;client&#45;cert&#45;key &#45;nopenshift&#45;config&#45;managed</text>
<text text-anchor="middle" x="6595.57" y="-135.66" font-family="Times-Roman" font-size="14.00"> &#160;&#160;&#160;secret/kube&#45;scheduler&#45;client&#45;cert&#45;key &#45;nopenshift&#45;kube&#45;scheduler</text>
<text text-anchor="middle" x="6595.57" y="-120.66" font-family="Times-Roman" font-size="14.00"> &#160;&#160;&#160;file:///etc/kubernetes/static&#45;pod&#45;resources/kube&#45;scheduler&#45;certs/secrets/kube&#45;scheduler&#45;client&#45;cert&#45;key/tls.crt/tls.crt,file:///etc/kubernetes/static&#45;pod&#45;resources/kube&#45;scheduler&#45;certs/secrets/kube&#45;scheduler&#45;client&#45;cert&#45;key/tls.crt/tls.key</text>
</g>
<!-- 0&#45;&gt;1 -->
<g id="edge1" class="edge">
<title>0&#45;&gt;1</title>
<path fill="none" stroke="black" d="M6595.57,-366.67C6595.57,-329.15 6595.57,-270.51 6595.57,-224.59"/>
<polygon fill="black" stroke="black" points="6599.07,-224.4 6595.57,-214.4 6592.07,-224.4 6599.07,-224.4"/>
</g>
<!-- 2 -->
<g id="node3" class="node">
<title>2</title>
<ellipse fill="#c8fbcd" stroke="black" cx="9031.57" cy="-154.86" rx="1296.67" ry="59.29"/>
<text text-anchor="middle" x="9031.57" y="-181.66" font-family="Times-Roman" font-size="14.00">certkeypair/kube&#45;controller&#45;manager&#45;client</text>
<text text-anchor="middle" x="9031.57" y="-150.66" font-family="Times-Roman" font-size="14.00">secret/kube&#45;controller&#45;manager&#45;client&#45;cert&#45;key &#45;nopenshift&#45;config&#45;managed</text>
<text text-anchor="middle" x="9031.57" y="-135.66" font-family="Times-Roman" font-size="14.00"> &#160;&#160;&#160;secret/kube&#45;controller&#45;manager&#45;client&#45;cert&#45;key &#45;nopenshift&#45;kube&#45;controller&#45;manager</text>
<text text-anchor="middle" x="9031.57" y="-120.66" font-family="Times-Roman" font-size="14.00"> &#160;&#160;&#160;file:///etc/kubernetes/static&#45;pod&#45;resources/kube&#45;controller&#45;manager&#45;certs/secrets/kube&#45;controller&#45;manager&#45;client&#45;cert&#45;key/tls.crt/tls.crt,file:///etc/kubernetes/static&#45;pod&#45;resources/kube&#45;controller&#45;manager&#45;certs/secrets/kube&#45;controller&#45;manager&#45;client&#45;cert&#45;key/tls.crt/tls.key</text>
</g>
<!-- 0&#45;&gt;2 -->
<g id="edge2" class="edge">
<title>0&#45;&gt;2</title>
<path fill="none" stroke="black" d="M6874.73,-383.44C7103.57,-365.86 7435.8,-338.88 7725.57,-309.71 8012.49,-280.84 8334.22,-243 8586.56,-212.07"/>
<polygon fill="black" stroke="black" points="8587.14,-215.53 8596.64,-210.84 8586.29,-208.58 8587.14,-215.53"/>
</g>
<!-- 11 -->
<g id="node12" class="node">
<title>11</title>
<ellipse fill="#c8fbcd" stroke="black" cx="1210.57" cy="-154.86" rx="1210.63" ry="48.58"/>
<text text-anchor="middle" x="1210.57" y="-174.16" font-family="Times-Roman" font-size="14.00">certkeypair/system:control&#45;plane&#45;node&#45;admin::6179025970239051547</text>
<text text-anchor="middle" x="1210.57" y="-143.16" font-family="Times-Roman" font-size="14.00">secret/control&#45;plane&#45;node&#45;admin&#45;client&#45;cert&#45;key &#45;nopenshift&#45;kube&#45;apiserver</text>
<text text-anchor="middle" x="1210.57" y="-128.16" font-family="Times-Roman" font-size="14.00"> &#160;&#160;&#160;file:///etc/kubernetes/static&#45;pod&#45;resources/kube&#45;apiserver&#45;certs/secrets/control&#45;plane&#45;node&#45;admin&#45;client&#45;cert&#45;key/tls.crt/tls.crt,file:///etc/kubernetes/static&#45;pod&#45;resources/kube&#45;apiserver&#45;certs/secrets/control&#45;plane&#45;node&#45;admin&#45;client&#45;cert&#45;key/tls.crt/tls.key</text>
</g>
<!-- 0&#45;&gt;11 -->
<g id="edge3" class="edge">
<title>0&#45;&gt;11</title>
<path fill="none" stroke="black" d="M6258.55,-400.95C5404.49,-392.23 3170.53,-364.72 2429.57,-309.71 2118.25,-286.6 1764.5,-239.63 1518.57,-203.64"/>
<polygon fill="black" stroke="black" points="1518.81,-200.13 1508.41,-202.15 1517.79,-207.06 1518.81,-200.13"/>
</g>
<!-- 12 -->
<g id="node13" class="node">
<title>12</title>
<ellipse fill="#c8fbcd" stroke="black" cx="3561.57" cy="-154.86" rx="1122.77" ry="48.58"/>
<text text-anchor="middle" x="3561.57" y="-174.16" font-family="Times-Roman" font-size="14.00">certkeypair/kube&#45;apiserver&#45;check&#45;endpoints</text>
<text text-anchor="middle" x="3561.57" y="-143.16" font-family="Times-Roman" font-size="14.00">secret/check&#45;endpoints&#45;client&#45;cert&#45;key &#45;nopenshift&#45;kube&#45;apiserver</text>
<text text-anchor="middle" x="3561.57" y="-128.16" font-family="Times-Roman" font-size="14.00"> &#160;&#160;&#160;file:///etc/kubernetes/static&#45;pod&#45;resources/kube&#45;apiserver&#45;certs/secrets/check&#45;endpoints&#45;client&#45;cert&#45;key/tls.crt/tls.crt,file:///etc/kubernetes/static&#45;pod&#45;resources/kube&#45;apiserver&#45;certs/secrets/check&#45;endpoints&#45;client&#45;cert&#45;key/tls.crt/tls.key</text>
</g>
<!-- 0&#45;&gt;12 -->
<g id="edge4" class="edge">
<title>0&#45;&gt;12</title>
<path fill="none" stroke="black" d="M6265.95,-396.3C5886.19,-385.32 5243.75,-360.66 4693.57,-309.71 4409.82,-283.44 4088.01,-238.19 3860.23,-203.55"/>
<polygon fill="black" stroke="black" points="3860.55,-200.06 3850.14,-202.01 3859.5,-206.98 3860.55,-200.06"/>
</g>
<!-- 13 -->
<g id="node14" class="node">
<title>13</title>
<ellipse fill="#fda172" stroke="black" cx="5079.57" cy="-154.86" rx="376.78" ry="38.37"/>
<text text-anchor="middle" x="5079.57" y="-166.66" font-family="Times-Roman" font-size="14.00">cabundle/kube&#45;apiserver&#45;kcm&#45;and&#45;ks&#45;client&#45;ca</text>
<text text-anchor="middle" x="5079.57" y="-135.66" font-family="Times-Roman" font-size="14.00">configmaps/kube&#45;control&#45;plane&#45;signer&#45;ca &#45;nopenshift&#45;kube&#45;apiserver&#45;operator</text>
</g>
<!-- 0&#45;&gt;13 -->
<g id="edge5" class="edge">
<title>0&#45;&gt;13</title>
<path fill="none" stroke="black" d="M6289.45,-388.72C6009.41,-372.79 5616.47,-345.26 5465.57,-309.71 5356.59,-284.05 5237.89,-232.96 5161.3,-196.7"/>
<polygon fill="black" stroke="black" points="5162.7,-193.49 5152.17,-192.35 5159.69,-199.81 5162.7,-193.49"/>
</g>
<!-- 14 -->
<g id="node15" class="node">
<title>14</title>
<ellipse fill="#fda172" stroke="black" cx="13377.57" cy="-154.86" rx="598.84" ry="91.43"/>
<text text-anchor="middle" x="13377.57" y="-204.16" font-family="Times-Roman" font-size="14.00">cabundle/kube&#45;apiserver&#45;total&#45;client&#45;ca</text>
<text text-anchor="middle" x="13377.57" y="-173.16" font-family="Times-Roman" font-size="14.00">configmaps/kube&#45;apiserver&#45;client&#45;ca &#45;nopenshift&#45;config&#45;managed</text>
<text text-anchor="middle" x="13377.57" y="-158.16" font-family="Times-Roman" font-size="14.00"> &#160;&#160;&#160;configmaps/client&#45;ca &#45;nopenshift&#45;controller&#45;manager</text>
<text text-anchor="middle" x="13377.57" y="-143.16" font-family="Times-Roman" font-size="14.00"> &#160;&#160;&#160;configmaps/client&#45;ca &#45;nopenshift&#45;kube&#45;apiserver</text>
<text text-anchor="middle" x="13377.57" y="-128.16" font-family="Times-Roman" font-size="14.00"> &#160;&#160;&#160;configmaps/client&#45;ca &#45;nopenshift&#45;kube&#45;controller&#45;manager</text>
<text text-anchor="middle" x="13377.57" y="-113.16" font-family="Times-Roman" font-size="14.00"> &#160;&#160;&#160;file:///etc/kubernetes/static&#45;pod&#45;resources/kube&#45;apiserver&#45;certs/configmaps/client&#45;ca/ca&#45;bundle.crt/ca&#45;bundle.crt</text>
<text text-anchor="middle" x="13377.57" y="-98.16" font-family="Times-Roman" font-size="14.00"> &#160;&#160;&#160;file:///etc/kubernetes/static&#45;pod&#45;resources/kube&#45;controller&#45;manager&#45;certs/configmaps/client&#45;ca/ca&#45;bundle.crt/ca&#45;bundle.crt</text>
</g>
<!-- 0&#45;&gt;14 -->
<g id="edge6" class="edge">
<title>0&#45;&gt;14</title>
<path fill="none" stroke="black" d="M6928.08,-397.74C7527.15,-386.38 8827.5,-362.28 9924.57,-345.71 10240.67,-340.94 12456.11,-350.77 12769.57,-309.71 12880.67,-295.16 13000.7,-267.44 13104.53,-239.5"/>
<polygon fill="black" stroke="black" points="13105.47,-242.87 13114.21,-236.88 13103.64,-236.11 13105.47,-242.87"/>
</g>
<!-- 21 -->
<g id="node22" class="node">
<title>21</title>
<ellipse fill="#fda172" stroke="black" cx="12457.57" cy="-154.86" rx="302.78" ry="38.37"/>
<text text-anchor="middle" x="12457.57" y="-166.66" font-family="Times-Roman" font-size="14.00">cabundle/kube&#45;apiserver&#45;from&#45;installer&#45;client&#45;ca</text>
<text text-anchor="middle" x="12457.57" y="-135.66" font-family="Times-Roman" font-size="14.00">configmaps/initial&#45;kube&#45;apiserver&#45;server&#45;ca &#45;nopenshift&#45;config</text>
</g>
<!-- 0&#45;&gt;21 -->
<g id="edge7" class="edge">
<title>0&#45;&gt;21</title>
<path fill="none" stroke="black" d="M6928.68,-398.12C7528.02,-387.37 8827.89,-364.22 9924.57,-345.71 10047.95,-343.63 12025.62,-338.71 12145.57,-309.71 12237.05,-287.6 12332.77,-235.4 12393.67,-197.93"/>
<polygon fill="black" stroke="black" points="12395.74,-200.76 12402.39,-192.51 12392.05,-194.81 12395.74,-200.76"/>
</g>
<!-- 3 -->
<g id="node4" class="node">
<title>3</title>
<ellipse fill="#c7bfff" stroke="black" cx="11991.57" cy="-538.69" rx="344.22" ry="38.37"/>
<text text-anchor="middle" x="11991.57" y="-550.49" font-family="Times-Roman" font-size="14.00">certkeypair/kube&#45;controller&#45;manager&#45;csr&#45;signer&#45;signer</text>
<text text-anchor="middle" x="11991.57" y="-519.49" font-family="Times-Roman" font-size="14.00">secret/csr&#45;signer&#45;signer &#45;nopenshift&#45;kube&#45;controller&#45;manager&#45;operator</text>
</g>
<!-- 4 -->
<g id="node5" class="node">
<title>4</title>
<ellipse fill="#c7bfff" stroke="black" cx="10948.57" cy="-405.11" rx="1015.31" ry="59.29"/>
<text text-anchor="middle" x="10948.57" y="-431.91" font-family="Times-Roman" font-size="14.00">certkeypair/kube&#45;controller&#45;manager&#45;csr&#45;signer</text>
<text text-anchor="middle" x="10948.57" y="-400.91" font-family="Times-Roman" font-size="14.00">secret/csr&#45;signer &#45;nopenshift&#45;kube&#45;controller&#45;manager</text>
<text text-anchor="middle" x="10948.57" y="-385.91" font-family="Times-Roman" font-size="14.00"> &#160;&#160;&#160;secret/csr&#45;signer &#45;nopenshift&#45;kube&#45;controller&#45;manager&#45;operator</text>
<text text-anchor="middle" x="10948.57" y="-370.91" font-family="Times-Roman" font-size="14.00"> &#160;&#160;&#160;file:///etc/kubernetes/static&#45;pod&#45;resources/kube&#45;controller&#45;manager&#45;certs/secrets/csr&#45;signer/tls.crt/tls.crt,file:///etc/kubernetes/static&#45;pod&#45;resources/kube&#45;controller&#45;manager&#45;certs/secrets/csr&#45;signer/tls.crt/tls.key</text>
</g>
<!-- 3&#45;&gt;4 -->
<g id="edge8" class="edge">
<title>3&#45;&gt;4</title>
<path fill="none" stroke="black" d="M11768.46,-509.54C11654.98,-495.23 11513.09,-477.33 11379.4,-460.46"/>
<polygon fill="black" stroke="black" points="11379.74,-456.98 11369.38,-459.2 11378.87,-463.92 11379.74,-456.98"/>
</g>
<!-- 3&#45;&gt;14 -->
<g id="edge9" class="edge">
<title>3&#45;&gt;14</title>
<path fill="none" stroke="black" d="M12331.2,-532.24C12748.59,-523.83 13406.7,-504.33 13444.57,-464.51 13497.36,-408.98 13472.57,-322.12 13439.15,-254.67"/>
<polygon fill="black" stroke="black" points="13442.25,-253.04 13434.6,-245.71 13436.01,-256.21 13442.25,-253.04"/>
</g>
<!-- 15 -->
<g id="node16" class="node">
<title>15</title>
<ellipse fill="#fda172" stroke="black" cx="10948.57" cy="-154.86" rx="602" ry="154.71"/>
<text text-anchor="middle" x="10948.57" y="-249.16" font-family="Times-Roman" font-size="14.00">cabundle/kube&#45;controller&#45;manager&#45;csr&#45;ca</text>
<text text-anchor="middle" x="10948.57" y="-218.16" font-family="Times-Roman" font-size="14.00">configmaps/csr&#45;controller&#45;ca &#45;nopenshift&#45;config&#45;managed</text>
<text text-anchor="middle" x="10948.57" y="-203.16" font-family="Times-Roman" font-size="14.00"> &#160;&#160;&#160;configmaps/kubelet&#45;serving&#45;ca &#45;nopenshift&#45;config&#45;managed</text>
<text text-anchor="middle" x="10948.57" y="-188.16" font-family="Times-Roman" font-size="14.00"> &#160;&#160;&#160;configmaps/kubelet&#45;serving&#45;ca &#45;nopenshift&#45;kube&#45;apiserver</text>
<text text-anchor="middle" x="10948.57" y="-173.16" font-family="Times-Roman" font-size="14.00"> &#160;&#160;&#160;configmaps/kubelet&#45;serving&#45;ca&#45;2 &#45;nopenshift&#45;kube&#45;apiserver</text>
<text text-anchor="middle" x="10948.57" y="-158.16" font-family="Times-Roman" font-size="14.00"> &#160;&#160;&#160;configmaps/kubelet&#45;serving&#45;ca&#45;3 &#45;nopenshift&#45;kube&#45;apiserver</text>
<text text-anchor="middle" x="10948.57" y="-143.16" font-family="Times-Roman" font-size="14.00"> &#160;&#160;&#160;configmaps/kubelet&#45;serving&#45;ca&#45;4 &#45;nopenshift&#45;kube&#45;apiserver</text>
<text text-anchor="middle" x="10948.57" y="-128.16" font-family="Times-Roman" font-size="14.00"> &#160;&#160;&#160;configmaps/csr&#45;controller&#45;ca &#45;nopenshift&#45;kube&#45;controller&#45;manager&#45;operator</text>
<text text-anchor="middle" x="10948.57" y="-113.16" font-family="Times-Roman" font-size="14.00"> &#160;&#160;&#160;configmaps/csr&#45;signer&#45;ca &#45;nopenshift&#45;kube&#45;controller&#45;manager&#45;operator</text>
<text text-anchor="middle" x="10948.57" y="-98.16" font-family="Times-Roman" font-size="14.00"> &#160;&#160;&#160;configmaps/kubelet&#45;serving&#45;ca&#45;bundle &#45;nopenshift&#45;monitoring</text>
<text text-anchor="middle" x="10948.57" y="-83.16" font-family="Times-Roman" font-size="14.00"> &#160;&#160;&#160;file:///etc/kubernetes/static&#45;pod&#45;resources/kube&#45;apiserver&#45;pod&#45;2/configmaps/kubelet&#45;serving&#45;ca/ca&#45;bundle.crt/ca&#45;bundle.crt</text>
<text text-anchor="middle" x="10948.57" y="-68.16" font-family="Times-Roman" font-size="14.00"> &#160;&#160;&#160;file:///etc/kubernetes/static&#45;pod&#45;resources/kube&#45;apiserver&#45;pod&#45;3/configmaps/kubelet&#45;serving&#45;ca/ca&#45;bundle.crt/ca&#45;bundle.crt</text>
<text text-anchor="middle" x="10948.57" y="-53.16" font-family="Times-Roman" font-size="14.00"> &#160;&#160;&#160;file:///etc/kubernetes/static&#45;pod&#45;resources/kube&#45;apiserver&#45;pod&#45;4/configmaps/kubelet&#45;serving&#45;ca/ca&#45;bundle.crt/ca&#45;bundle.crt</text>
</g>
<!-- 3&#45;&gt;15 -->
<g id="edge10" class="edge">
<title>3&#45;&gt;15</title>
<path fill="none" stroke="black" d="M11647.07,-537.8C11074.43,-536.27 9983.28,-525.33 9924.57,-464.51 9887.9,-426.52 9888.89,-384.63 9924.57,-345.71 9955.69,-311.76 10292.14,-317.36 10337.57,-309.71 10400.03,-299.2 10465.49,-285.57 10529.4,-270.77"/>
<polygon fill="black" stroke="black" points="10530.28,-274.16 10539.23,-268.48 10528.7,-267.34 10530.28,-274.16"/>
</g>
<!-- 16 -->
<g id="node17" class="node">
<title>16</title>
<ellipse fill="#fda172" stroke="black" cx="12417.57" cy="-405.11" rx="398.2" ry="38.37"/>
<text text-anchor="middle" x="12417.57" y="-416.91" font-family="Times-Roman" font-size="14.00">cabundle/kube&#45;controller&#45;manager&#45;csr&#45;signer&#45;signer&#45;ca</text>
<text text-anchor="middle" x="12417.57" y="-385.91" font-family="Times-Roman" font-size="14.00">configmaps/csr&#45;controller&#45;signer&#45;ca &#45;nopenshift&#45;kube&#45;controller&#45;manager&#45;operator</text>
</g>
<!-- 3&#45;&gt;16 -->
<g id="edge11" class="edge">
<title>3&#45;&gt;16</title>
<path fill="none" stroke="black" d="M12105.17,-502.6C12162.95,-484.75 12233.32,-463.02 12292.63,-444.7"/>
<polygon fill="black" stroke="black" points="12293.91,-447.97 12302.43,-441.67 12291.84,-441.28 12293.91,-447.97"/>
</g>
<!-- 3&#45;&gt;21 -->
<g id="edge12" class="edge">
<title>3&#45;&gt;21</title>
<path fill="none" stroke="black" d="M11983.84,-500.43C11977.33,-457.87 11974.13,-388.59 12010.57,-345.71 12050.78,-298.4 12087.44,-331.55 12145.57,-309.71 12230.03,-277.98 12322.18,-230.88 12384.26,-197.16"/>
<polygon fill="black" stroke="black" points="12386.1,-200.15 12393.2,-192.29 12382.75,-194 12386.1,-200.15"/>
</g>
<!-- 4&#45;&gt;14 -->
<g id="edge13" class="edge">
<title>4&#45;&gt;14</title>
<path fill="none" stroke="black" d="M11673.69,-363.51C11786.46,-357.4 11901.65,-351.29 12010.57,-345.71 12347.84,-328.44 12435.53,-359.39 12769.57,-309.71 12878.33,-293.54 12995.91,-266.18 13098.41,-238.98"/>
<polygon fill="black" stroke="black" points="13099.52,-242.31 13108.28,-236.35 13097.72,-235.54 13099.52,-242.31"/>
</g>
<!-- 4&#45;&gt;15 -->
<g id="edge14" class="edge">
<title>4&#45;&gt;15</title>
<path fill="none" stroke="black" d="M10948.57,-345.59C10948.57,-337.57 10948.57,-329.04 10948.57,-320.2"/>
<polygon fill="black" stroke="black" points="10952.07,-320.11 10948.57,-310.11 10945.07,-320.11 10952.07,-320.11"/>
</g>
<!-- 5 -->
<g id="node6" class="node">
<title>5</title>
<ellipse fill="#c7bfff" stroke="black" cx="13134.57" cy="-405.11" rx="301.46" ry="38.37"/>
<text text-anchor="middle" x="13134.57" y="-416.91" font-family="Times-Roman" font-size="14.00">certkeypair/admin&#45;kubeconfig&#45;signer::7222735057655048698</text>
<text text-anchor="middle" x="13134.57" y="-385.91" font-family="Times-Roman" font-size="14.00">file:///etc/kubernetes/kubelet&#45;ca.crt/kubelet&#45;ca.crt,file://</text>
</g>
<!-- 5&#45;&gt;14 -->
<g id="edge15" class="edge">
<title>5&#45;&gt;14</title>
<path fill="none" stroke="black" d="M13170.95,-366.94C13200.55,-336.7 13243.7,-292.62 13282.92,-252.55"/>
<polygon fill="black" stroke="black" points="13285.7,-254.71 13290.19,-245.12 13280.7,-249.82 13285.7,-254.71"/>
</g>
<!-- 17 -->
<g id="node18" class="node">
<title>17</title>
<ellipse fill="#fda172" stroke="black" cx="11852.57" cy="-154.86" rx="284.01" ry="38.37"/>
<text text-anchor="middle" x="11852.57" y="-166.66" font-family="Times-Roman" font-size="14.00">cabundle/kube&#45;apiserver&#45;admin&#45;kubeconfig&#45;client&#45;ca</text>
<text text-anchor="middle" x="11852.57" y="-135.66" font-family="Times-Roman" font-size="14.00">configmaps/admin&#45;kubeconfig&#45;client&#45;ca &#45;nopenshift&#45;config</text>
</g>
<!-- 5&#45;&gt;17 -->
<g id="edge16" class="edge">
<title>5&#45;&gt;17</title>
<path fill="none" stroke="black" d="M12985.4,-371.85C12934.59,-361.97 12877.31,-352.05 12824.57,-345.71 12674.55,-327.69 12291.26,-349.76 12145.57,-309.71 12059.94,-286.18 11970.9,-234.97 11913.78,-198.09"/>
<polygon fill="black" stroke="black" points="11915.53,-195.06 11905.24,-192.53 11911.71,-200.92 11915.53,-195.06"/>
</g>
<!-- 5&#45;&gt;21 -->
<g id="edge17" class="edge">
<title>5&#45;&gt;21</title>
<path fill="none" stroke="black" d="M12982.37,-372.12C12916.04,-356.3 12837.98,-335.12 12769.57,-309.71 12684.85,-278.25 12592.57,-231 12530.51,-197.17"/>
<polygon fill="black" stroke="black" points="12532.03,-194.01 12521.58,-192.28 12528.67,-200.15 12532.03,-194.01"/>
</g>
<!-- 6 -->
<g id="node7" class="node">
<title>6</title>
<ellipse fill="#c7bfff" stroke="black" cx="17814.57" cy="-405.11" rx="342.89" ry="38.37"/>
<text text-anchor="middle" x="17814.57" y="-416.91" font-family="Times-Roman" font-size="14.00">certkeypair/per&#45;master&#45;debugging&#45;signer</text>
<text text-anchor="middle" x="17814.57" y="-385.91" font-family="Times-Roman" font-size="14.00">secret/node&#45;system&#45;admin&#45;signer &#45;nopenshift&#45;kube&#45;apiserver&#45;operator</text>
</g>
<!-- 7 -->
<g id="node8" class="node">
<title>7</title>
<ellipse fill="#c8fbcd" stroke="black" cx="17814.57" cy="-154.86" rx="339.32" ry="38.37"/>
<text text-anchor="middle" x="17814.57" y="-166.66" font-family="Times-Roman" font-size="14.00">certkeypair/per&#45;master&#45;debugging&#45;client</text>
<text text-anchor="middle" x="17814.57" y="-135.66" font-family="Times-Roman" font-size="14.00">secret/node&#45;system&#45;admin&#45;client &#45;nopenshift&#45;kube&#45;apiserver&#45;operator</text>
</g>
<!-- 6&#45;&gt;7 -->
<g id="edge18" class="edge">
<title>6&#45;&gt;7</title>
<path fill="none" stroke="black" d="M17814.57,-366.67C17814.57,-323.01 17814.57,-250.76 17814.57,-203.23"/>
<polygon fill="black" stroke="black" points="17818.07,-203.19 17814.57,-193.19 17811.07,-203.19 17818.07,-203.19"/>
</g>
<!-- 6&#45;&gt;14 -->
<g id="edge19" class="edge">
<title>6&#45;&gt;14</title>
<path fill="none" stroke="black" d="M17481.11,-396.13C16553.17,-373.9 14007.11,-312.67 13985.57,-309.71 13875.32,-294.6 13756.19,-267.03 13652.85,-239.36"/>
<polygon fill="black" stroke="black" points="13653.46,-235.9 13642.9,-236.68 13651.64,-242.66 13653.46,-235.9"/>
</g>
<!-- 18 -->
<g id="node19" class="node">
<title>18</title>
<ellipse fill="#fda172" stroke="black" cx="18520.57" cy="-154.86" rx="348.71" ry="38.37"/>
<text text-anchor="middle" x="18520.57" y="-166.66" font-family="Times-Roman" font-size="14.00">cabundle/kube&#45;apiserver&#45;per&#45;master&#45;debugging&#45;client&#45;ca</text>
<text text-anchor="middle" x="18520.57" y="-135.66" font-family="Times-Roman" font-size="14.00">configmaps/node&#45;system&#45;admin&#45;ca &#45;nopenshift&#45;kube&#45;apiserver&#45;operator</text>
</g>
<!-- 6&#45;&gt;18 -->
<g id="edge20" class="edge">
<title>6&#45;&gt;18</title>
<path fill="none" stroke="black" d="M17956.91,-370.34C18020.47,-354.02 18095.92,-332.94 18162.57,-309.71 18257.79,-276.52 18363.49,-229.82 18435.19,-196.6"/>
<polygon fill="black" stroke="black" points="18437.04,-199.59 18444.64,-192.21 18434.09,-193.25 18437.04,-199.59"/>
</g>
<!-- 8 -->
<g id="node9" class="node">
<title>8</title>
<ellipse fill="white" stroke="black" cx="13730.57" cy="-405.11" rx="239" ry="38.78"/>
<text text-anchor="middle" x="13730.57" y="-417.41" font-family="Times-Roman" font-size="14.00">certkeypair/kubelet&#45;bootstrap&#45;kubeconfig&#45;signer</text>
</g>
<!-- 8&#45;&gt;14 -->
<g id="edge21" class="edge">
<title>8&#45;&gt;14</title>
<path fill="none" stroke="black" d="M13677.72,-366.94C13633.81,-336.07 13569.4,-290.76 13511.48,-250.03"/>
<polygon fill="black" stroke="black" points="13513.18,-246.95 13502.99,-244.06 13509.15,-252.68 13513.18,-246.95"/>
</g>
<!-- 19 -->
<g id="node20" class="node">
<title>19</title>
<ellipse fill="#fda172" stroke="black" cx="14337.57" cy="-154.86" rx="342.89" ry="38.37"/>
<text text-anchor="middle" x="14337.57" y="-166.66" font-family="Times-Roman" font-size="14.00">cabundle/kubelet&#45;bootstrap&#45;kubeconfig&#45;signer</text>
<text text-anchor="middle" x="14337.57" y="-135.66" font-family="Times-Roman" font-size="14.00">configmaps/kubelet&#45;bootstrap&#45;kubeconfig &#45;nopenshift&#45;config&#45;managed</text>
</g>
<!-- 8&#45;&gt;19 -->
<g id="edge22" class="edge">
<title>8&#45;&gt;19</title>
<path fill="none" stroke="black" d="M13827.94,-369.55C13875.69,-352.23 13933.9,-330.55 13985.57,-309.71 14075.99,-273.25 14177.92,-228.26 14248.74,-196.37"/>
<polygon fill="black" stroke="black" points="14250.41,-199.46 14258.08,-192.16 14247.53,-193.08 14250.41,-199.46"/>
</g>
<!-- 8&#45;&gt;21 -->
<g id="edge23" class="edge">
<title>8&#45;&gt;21</title>
<path fill="none" stroke="black" d="M13597.75,-372.73C13549.74,-362.52 13494.96,-352.17 13444.57,-345.71 13146.57,-307.56 13060.22,-385.7 12769.57,-309.71 12679.07,-286.05 12583.87,-234.7 12522.79,-197.83"/>
<polygon fill="black" stroke="black" points="12524.39,-194.71 12514.03,-192.5 12520.75,-200.69 12524.39,-194.71"/>
</g>
<!-- 9 -->
<g id="node10" class="node">
<title>9</title>
<ellipse fill="#c7bfff" stroke="black" cx="15011.57" cy="-405.11" rx="371.88" ry="38.37"/>
<text text-anchor="middle" x="15011.57" y="-416.91" font-family="Times-Roman" font-size="14.00">certkeypair/kube&#45;apiserver&#45;to&#45;kubelet&#45;signer</text>
<text text-anchor="middle" x="15011.57" y="-385.91" font-family="Times-Roman" font-size="14.00">secret/kube&#45;apiserver&#45;to&#45;kubelet&#45;signer &#45;nopenshift&#45;kube&#45;apiserver&#45;operator</text>
</g>
<!-- 10 -->
<g id="node11" class="node">
<title>10</title>
<ellipse fill="#c8fbcd" stroke="black" cx="15662.57" cy="-154.86" rx="963.57" ry="101.65"/>
<text text-anchor="middle" x="15662.57" y="-211.66" font-family="Times-Roman" font-size="14.00">certkeypair/kube&#45;apiserver&#45;to&#45;kubelet&#45;client</text>
<text text-anchor="middle" x="15662.57" y="-180.66" font-family="Times-Roman" font-size="14.00">secret/kubelet&#45;client &#45;nopenshift&#45;kube&#45;apiserver</text>
<text text-anchor="middle" x="15662.57" y="-165.66" font-family="Times-Roman" font-size="14.00"> &#160;&#160;&#160;secret/kubelet&#45;client&#45;2 &#45;nopenshift&#45;kube&#45;apiserver</text>
<text text-anchor="middle" x="15662.57" y="-150.66" font-family="Times-Roman" font-size="14.00"> &#160;&#160;&#160;secret/kubelet&#45;client&#45;3 &#45;nopenshift&#45;kube&#45;apiserver</text>
<text text-anchor="middle" x="15662.57" y="-135.66" font-family="Times-Roman" font-size="14.00"> &#160;&#160;&#160;secret/kubelet&#45;client&#45;4 &#45;nopenshift&#45;kube&#45;apiserver</text>
<text text-anchor="middle" x="15662.57" y="-120.66" font-family="Times-Roman" font-size="14.00"> &#160;&#160;&#160;file:///etc/kubernetes/static&#45;pod&#45;resources/kube&#45;apiserver&#45;pod&#45;2/secrets/kubelet&#45;client/tls.crt/tls.crt,file:///etc/kubernetes/static&#45;pod&#45;resources/kube&#45;apiserver&#45;pod&#45;2/secrets/kubelet&#45;client/tls.crt/tls.key</text>
<text text-anchor="middle" x="15662.57" y="-105.66" font-family="Times-Roman" font-size="14.00"> &#160;&#160;&#160;file:///etc/kubernetes/static&#45;pod&#45;resources/kube&#45;apiserver&#45;pod&#45;3/secrets/kubelet&#45;client/tls.crt/tls.crt,file:///etc/kubernetes/static&#45;pod&#45;resources/kube&#45;apiserver&#45;pod&#45;3/secrets/kubelet&#45;client/tls.crt/tls.key</text>
<text text-anchor="middle" x="15662.57" y="-90.66" font-family="Times-Roman" font-size="14.00"> &#160;&#160;&#160;file:///etc/kubernetes/static&#45;pod&#45;resources/kube&#45;apiserver&#45;pod&#45;4/secrets/kubelet&#45;client/tls.crt/tls.crt,file:///etc/kubernetes/static&#45;pod&#45;resources/kube&#45;apiserver&#45;pod&#45;4/secrets/kubelet&#45;client/tls.crt/tls.key</text>
</g>
<!-- 9&#45;&gt;10 -->
<g id="edge24" class="edge">
<title>9&#45;&gt;10</title>
<path fill="none" stroke="black" d="M15105.88,-368.14C15182.59,-338.89 15294.69,-296.14 15398.23,-256.66"/>
<polygon fill="black" stroke="black" points="15399.49,-259.92 15407.59,-253.09 15396.99,-253.38 15399.49,-259.92"/>
</g>
<!-- 9&#45;&gt;14 -->
<g id="edge25" class="edge">
<title>9&#45;&gt;14</title>
<path fill="none" stroke="black" d="M14683.82,-387.03C14481.54,-373.26 14217.3,-349.44 13985.57,-309.71 13879.78,-291.58 13765.32,-264.6 13664.55,-238.27"/>
<polygon fill="black" stroke="black" points="13665.4,-234.88 13654.84,-235.73 13663.63,-241.65 13665.4,-234.88"/>
</g>
<!-- 20 -->
<g id="node21" class="node">
<title>20</title>
<ellipse fill="#fda172" stroke="black" cx="17050.57" cy="-154.86" rx="406.67" ry="38.37"/>
<text text-anchor="middle" x="17050.57" y="-166.66" font-family="Times-Roman" font-size="14.00">cabundle/kubelet&#45;to&#45;recognize&#45;kube&#45;apiserver&#45;client&#45;ca</text>
<text text-anchor="middle" x="17050.57" y="-135.66" font-family="Times-Roman" font-size="14.00">configmaps/kube&#45;apiserver&#45;to&#45;kubelet&#45;client&#45;ca &#45;nopenshift&#45;kube&#45;apiserver&#45;operator</text>
</g>
<!-- 9&#45;&gt;20 -->
<g id="edge26" class="edge">
<title>9&#45;&gt;20</title>
<path fill="none" stroke="black" d="M15372.12,-395.59C15775.6,-383.85 16403.2,-358.4 16635.57,-309.71 16753.06,-285.09 16881.71,-233.22 16964.14,-196.53"/>
<polygon fill="black" stroke="black" points="16965.76,-199.64 16973.46,-192.36 16962.9,-193.25 16965.76,-199.64"/>
</g>
<!-- 9&#45;&gt;21 -->
<g id="edge27" class="edge">
<title>9&#45;&gt;21</title>
<path fill="none" stroke="black" d="M14699.48,-384.29C14494.6,-371.82 14220.73,-356.16 13978.57,-345.71 13844.3,-339.92 12899.98,-342.17 12769.57,-309.71 12678.38,-287.01 12582.78,-235.07 12521.82,-197.82"/>
<polygon fill="black" stroke="black" points="12523.43,-194.7 12513.08,-192.43 12519.76,-200.66 12523.43,-194.7"/>
</g>
</g>
</svg>
