<?xml version="1.0" encoding="UTF-8" standalone="no"?>
<!DOCTYPE svg PUBLIC "-//W3C//DTD SVG 1.1//EN"
 "http://www.w3.org/Graphics/SVG/1.1/DTD/svg11.dtd">
<!-- Generated by graphviz version 5.0.1 (20220820.1526)
 -->
<!-- Title: OpenShift Certificates Pages: 1 -->
<svg width="20888pt" height="500pt"
 viewBox="0.00 0.00 20888.39 500.02" xmlns="http://www.w3.org/2000/svg" xmlns:xlink="http://www.w3.org/1999/xlink">
<g id="graph0" class="graph" transform="scale(1 1) rotate(0) translate(4 496.02)">
<title>OpenShift Certificates</title>
<polygon fill="white" stroke="none" points="-4,4 -4,-496.02 20884.39,-496.02 20884.39,4 -4,4"/>
<!-- 0 -->
<g id="node1" class="node">
<title>0</title>
<ellipse fill="#c8fbcd" stroke="black" cx="1544.13" cy="-112.43" rx="903.86" ry="59.29"/>
<text text-anchor="middle" x="1544.13" y="-139.23" font-family="Times,serif" font-size="14.00">certkeypair/kube&#45;scheduler&#45;client</text>
<text text-anchor="middle" x="1544.13" y="-108.23" font-family="Times,serif" font-size="14.00">secret/kube&#45;scheduler&#45;client&#45;cert&#45;key &#45;nopenshift&#45;config&#45;managed</text>
<text text-anchor="middle" x="1544.13" y="-93.23" font-family="Times,serif" font-size="14.00"> &#160;&#160;&#160;secret/kube&#45;scheduler&#45;client&#45;cert&#45;key &#45;nopenshift&#45;kube&#45;scheduler</text>
<text text-anchor="middle" x="1544.13" y="-78.23" font-family="Times,serif" font-size="14.00"> &#160;&#160;&#160;file:///etc/kubernetes/static&#45;pod&#45;resources/kube&#45;scheduler&#45;certs/secrets/kube&#45;scheduler&#45;client&#45;cert&#45;key/tls.crt/tls.crt,file:///etc/kubernetes/static&#45;pod&#45;resources/kube&#45;scheduler&#45;certs/secrets/kube&#45;scheduler&#45;client&#45;cert&#45;key/tls.crt/tls.key</text>
</g>
<!-- 1 -->
<g id="node2" class="node">
<title>1</title>
<ellipse fill="#c7bfff" stroke="black" cx="5362.13" cy="-320.26" rx="277.37" ry="38.37"/>
<text text-anchor="middle" x="5362.13" y="-332.06" font-family="Times,serif" font-size="14.00">certkeypair/kube&#45;control&#45;plane&#45;signer</text>
<text text-anchor="middle" x="5362.13" y="-301.06" font-family="Times,serif" font-size="14.00">secret/kube&#45;control&#45;plane&#45;signer &#45;nopenshift&#45;kube&#45;apiserver&#45;operator</text>
</g>
<!-- 1&#45;&gt;0 -->
<g id="edge1" class="edge">
<title>1&#45;&gt;0</title>
<path fill="none" stroke="black" d="M5085.05,-318.45C4567.81,-315.12 3420.43,-299.15 2457.13,-224.86 2282.66,-211.41 2090.27,-189.05 1927.27,-167.88"/>
<polygon fill="black" stroke="black" points="1927.44,-164.38 1917.07,-166.56 1926.53,-171.32 1927.44,-164.38"/>
</g>
<!-- 14 -->
<g id="node15" class="node">
<title>14</title>
<ellipse fill="#c8fbcd" stroke="black" cx="3450.13" cy="-112.43" rx="984.09" ry="48.58"/>
<text text-anchor="middle" x="3450.13" y="-131.73" font-family="Times,serif" font-size="14.00">certkeypair/system:control&#45;plane&#45;node&#45;admin::6517587000910001957</text>
<text text-anchor="middle" x="3450.13" y="-100.73" font-family="Times,serif" font-size="14.00">secret/control&#45;plane&#45;node&#45;admin&#45;client&#45;cert&#45;key &#45;nopenshift&#45;kube&#45;apiserver</text>
<text text-anchor="middle" x="3450.13" y="-85.73" font-family="Times,serif" font-size="14.00"> &#160;&#160;&#160;file:///etc/kubernetes/static&#45;pod&#45;resources/kube&#45;apiserver&#45;certs/secrets/control&#45;plane&#45;node&#45;admin&#45;client&#45;cert&#45;key/tls.crt/tls.crt,file:///etc/kubernetes/static&#45;pod&#45;resources/kube&#45;apiserver&#45;certs/secrets/control&#45;plane&#45;node&#45;admin&#45;client&#45;cert&#45;key/tls.crt/tls.key</text>
</g>
<!-- 1&#45;&gt;14 -->
<g id="edge2" class="edge">
<title>1&#45;&gt;14</title>
<path fill="none" stroke="black" d="M5141.34,-297.13C4955.35,-278.35 4682.28,-250.45 4444.13,-224.86 4246.62,-203.63 4027.14,-179.13 3844.77,-158.51"/>
<polygon fill="black" stroke="black" points="3845.07,-155.02 3834.74,-157.38 3844.29,-161.98 3845.07,-155.02"/>
</g>
<!-- 15 -->
<g id="node16" class="node">
<title>15</title>
<ellipse fill="#c8fbcd" stroke="black" cx="5362.13" cy="-112.43" rx="909.18" ry="48.58"/>
<text text-anchor="middle" x="5362.13" y="-131.73" font-family="Times,serif" font-size="14.00">certkeypair/kube&#45;apiserver&#45;check&#45;endpoints</text>
<text text-anchor="middle" x="5362.13" y="-100.73" font-family="Times,serif" font-size="14.00">secret/check&#45;endpoints&#45;client&#45;cert&#45;key &#45;nopenshift&#45;kube&#45;apiserver</text>
<text text-anchor="middle" x="5362.13" y="-85.73" font-family="Times,serif" font-size="14.00"> &#160;&#160;&#160;file:///etc/kubernetes/static&#45;pod&#45;resources/kube&#45;apiserver&#45;certs/secrets/check&#45;endpoints&#45;client&#45;cert&#45;key/tls.crt/tls.crt,file:///etc/kubernetes/static&#45;pod&#45;resources/kube&#45;apiserver&#45;certs/secrets/check&#45;endpoints&#45;client&#45;cert&#45;key/tls.crt/tls.key</text>
</g>
<!-- 1&#45;&gt;15 -->
<g id="edge3" class="edge">
<title>1&#45;&gt;15</title>
<path fill="none" stroke="black" d="M5362.13,-281.98C5362.13,-251.2 5362.13,-206.96 5362.13,-171.52"/>
<polygon fill="black" stroke="black" points="5365.63,-171.31 5362.13,-161.31 5358.63,-171.31 5365.63,-171.31"/>
</g>
<!-- 16 -->
<g id="node17" class="node">
<title>16</title>
<ellipse fill="#c8fbcd" stroke="black" cx="7342.13" cy="-112.43" rx="1052.35" ry="59.29"/>
<text text-anchor="middle" x="7342.13" y="-139.23" font-family="Times,serif" font-size="14.00">certkeypair/kube&#45;controller&#45;manager&#45;client</text>
<text text-anchor="middle" x="7342.13" y="-108.23" font-family="Times,serif" font-size="14.00">secret/kube&#45;controller&#45;manager&#45;client&#45;cert&#45;key &#45;nopenshift&#45;config&#45;managed</text>
<text text-anchor="middle" x="7342.13" y="-93.23" font-family="Times,serif" font-size="14.00"> &#160;&#160;&#160;secret/kube&#45;controller&#45;manager&#45;client&#45;cert&#45;key &#45;nopenshift&#45;kube&#45;controller&#45;manager</text>
<text text-anchor="middle" x="7342.13" y="-78.23" font-family="Times,serif" font-size="14.00"> &#160;&#160;&#160;file:///etc/kubernetes/static&#45;pod&#45;resources/kube&#45;controller&#45;manager&#45;certs/secrets/kube&#45;controller&#45;manager&#45;client&#45;cert&#45;key/tls.crt/tls.crt,file:///etc/kubernetes/static&#45;pod&#45;resources/kube&#45;controller&#45;manager&#45;certs/secrets/kube&#45;controller&#45;manager&#45;client&#45;cert&#45;key/tls.crt/tls.key</text>
</g>
<!-- 1&#45;&gt;16 -->
<g id="edge4" class="edge">
<title>1&#45;&gt;16</title>
<path fill="none" stroke="black" d="M5581.47,-296.83C5767.46,-277.78 6041.29,-249.67 6280.13,-224.86 6463.59,-205.8 6664.86,-184.73 6842.38,-166.08"/>
<polygon fill="black" stroke="black" points="6842.85,-169.55 6852.43,-165.03 6842.12,-162.59 6842.85,-169.55"/>
</g>
<!-- 17 -->
<g id="node18" class="node">
<title>17</title>
<ellipse fill="#fda172" stroke="black" cx="311.13" cy="-112.43" rx="311.25" ry="38.37"/>
<text text-anchor="middle" x="311.13" y="-124.23" font-family="Times,serif" font-size="14.00">cabundle/kube&#45;apiserver&#45;kcm&#45;and&#45;ks&#45;client&#45;ca</text>
<text text-anchor="middle" x="311.13" y="-93.23" font-family="Times,serif" font-size="14.00">configmaps/kube&#45;control&#45;plane&#45;signer&#45;ca &#45;nopenshift&#45;kube&#45;apiserver&#45;operator</text>
</g>
<!-- 1&#45;&gt;17 -->
<g id="edge5" class="edge">
<title>1&#45;&gt;17</title>
<path fill="none" stroke="black" d="M5084.93,-318.8C4138.31,-316.55 1067.96,-303.23 631.13,-224.86 550.99,-210.48 463.98,-179.08 400.94,-153.27"/>
<polygon fill="black" stroke="black" points="402.01,-149.92 391.43,-149.34 399.34,-156.39 402.01,-149.92"/>
</g>
<!-- 18 -->
<g id="node19" class="node">
<title>18</title>
<ellipse fill="#fda172" stroke="black" cx="10072.13" cy="-112.43" rx="489.14" ry="91.43"/>
<text text-anchor="middle" x="10072.13" y="-161.73" font-family="Times,serif" font-size="14.00">cabundle/kube&#45;apiserver&#45;total&#45;client&#45;ca</text>
<text text-anchor="middle" x="10072.13" y="-130.73" font-family="Times,serif" font-size="14.00">configmaps/kube&#45;apiserver&#45;client&#45;ca &#45;nopenshift&#45;config&#45;managed</text>
<text text-anchor="middle" x="10072.13" y="-115.73" font-family="Times,serif" font-size="14.00"> &#160;&#160;&#160;configmaps/client&#45;ca &#45;nopenshift&#45;controller&#45;manager</text>
<text text-anchor="middle" x="10072.13" y="-100.73" font-family="Times,serif" font-size="14.00"> &#160;&#160;&#160;configmaps/client&#45;ca &#45;nopenshift&#45;kube&#45;apiserver</text>
<text text-anchor="middle" x="10072.13" y="-85.73" font-family="Times,serif" font-size="14.00"> &#160;&#160;&#160;configmaps/client&#45;ca &#45;nopenshift&#45;kube&#45;controller&#45;manager</text>
<text text-anchor="middle" x="10072.13" y="-70.73" font-family="Times,serif" font-size="14.00"> &#160;&#160;&#160;file:///etc/kubernetes/static&#45;pod&#45;resources/kube&#45;apiserver&#45;certs/configmaps/client&#45;ca/ca&#45;bundle.crt/ca&#45;bundle.crt</text>
<text text-anchor="middle" x="10072.13" y="-55.73" font-family="Times,serif" font-size="14.00"> &#160;&#160;&#160;file:///etc/kubernetes/static&#45;pod&#45;resources/kube&#45;controller&#45;manager&#45;certs/configmaps/client&#45;ca/ca&#45;bundle.crt/ca&#45;bundle.crt</text>
</g>
<!-- 1&#45;&gt;18 -->
<g id="edge6" class="edge">
<title>1&#45;&gt;18</title>
<path fill="none" stroke="black" d="M5637.88,-316.24C6511.97,-306.25 9186.31,-272.12 9574.13,-224.86 9641.08,-216.7 9712.25,-203.54 9779.22,-189.07"/>
<polygon fill="black" stroke="black" points="9780.04,-192.48 9789.07,-186.93 9778.55,-185.64 9780.04,-192.48"/>
</g>
<!-- 28 -->
<g id="node29" class="node">
<title>28</title>
<ellipse fill="#fda172" stroke="black" cx="11420.13" cy="-112.43" rx="253.7" ry="38.37"/>
<text text-anchor="middle" x="11420.13" y="-124.23" font-family="Times,serif" font-size="14.00">cabundle/kube&#45;apiserver&#45;from&#45;installer&#45;client&#45;ca</text>
<text text-anchor="middle" x="11420.13" y="-93.23" font-family="Times,serif" font-size="14.00">configmaps/initial&#45;kube&#45;apiserver&#45;server&#45;ca &#45;nopenshift&#45;config</text>
</g>
<!-- 1&#45;&gt;28 -->
<g id="edge7" class="edge">
<title>1&#45;&gt;28</title>
<path fill="none" stroke="black" d="M5636.54,-314.83C6785.8,-296.29 11152.85,-225.76 11157.13,-224.86 11223.72,-210.77 11294.51,-179.76 11345.85,-154.02"/>
<polygon fill="black" stroke="black" points="11347.54,-157.08 11354.88,-149.44 11344.38,-150.84 11347.54,-157.08"/>
</g>
<!-- 2 -->
<g id="node3" class="node">
<title>2</title>
<ellipse fill="#c7bfff" stroke="black" cx="9286.13" cy="-320.26" rx="280.94" ry="38.37"/>
<text text-anchor="middle" x="9286.13" y="-332.06" font-family="Times,serif" font-size="14.00">certkeypair/per&#45;master&#45;debugging&#45;signer</text>
<text text-anchor="middle" x="9286.13" y="-301.06" font-family="Times,serif" font-size="14.00">secret/node&#45;system&#45;admin&#45;signer &#45;nopenshift&#45;kube&#45;apiserver&#45;operator</text>
</g>
<!-- 3 -->
<g id="node4" class="node">
<title>3</title>
<ellipse fill="#c8fbcd" stroke="black" cx="9286.13" cy="-112.43" rx="278.7" ry="38.37"/>
<text text-anchor="middle" x="9286.13" y="-124.23" font-family="Times,serif" font-size="14.00">certkeypair/per&#45;master&#45;debugging&#45;client</text>
<text text-anchor="middle" x="9286.13" y="-93.23" font-family="Times,serif" font-size="14.00">secret/node&#45;system&#45;admin&#45;client &#45;nopenshift&#45;kube&#45;apiserver&#45;operator</text>
</g>
<!-- 2&#45;&gt;3 -->
<g id="edge8" class="edge">
<title>2&#45;&gt;3</title>
<path fill="none" stroke="black" d="M9286.13,-281.98C9286.13,-247.99 9286.13,-197.6 9286.13,-160.78"/>
<polygon fill="black" stroke="black" points="9289.63,-160.77 9286.13,-150.77 9282.63,-160.77 9289.63,-160.77"/>
</g>
<!-- 2&#45;&gt;18 -->
<g id="edge9" class="edge">
<title>2&#45;&gt;18</title>
<path fill="none" stroke="black" d="M9412.85,-286.07C9512.09,-260.09 9654.09,-222.9 9780.91,-189.69"/>
<polygon fill="black" stroke="black" points="9782.01,-193.02 9790.79,-187.1 9780.23,-186.25 9782.01,-193.02"/>
</g>
<!-- 19 -->
<g id="node20" class="node">
<title>19</title>
<ellipse fill="#fda172" stroke="black" cx="8701.13" cy="-112.43" rx="288.5" ry="38.37"/>
<text text-anchor="middle" x="8701.13" y="-124.23" font-family="Times,serif" font-size="14.00">cabundle/kube&#45;apiserver&#45;per&#45;master&#45;debugging&#45;client&#45;ca</text>
<text text-anchor="middle" x="8701.13" y="-93.23" font-family="Times,serif" font-size="14.00">configmaps/node&#45;system&#45;admin&#45;ca &#45;nopenshift&#45;kube&#45;apiserver&#45;operator</text>
</g>
<!-- 2&#45;&gt;19 -->
<g id="edge10" class="edge">
<title>2&#45;&gt;19</title>
<path fill="none" stroke="black" d="M9177.72,-284.92C9123.59,-267.47 9057.2,-245.61 8998.13,-224.86 8932.3,-201.73 8858.88,-174.21 8801.51,-152.3"/>
<polygon fill="black" stroke="black" points="8802.67,-148.99 8792.08,-148.69 8800.17,-155.53 8802.67,-148.99"/>
</g>
<!-- 4 -->
<g id="node5" class="node">
<title>4</title>
<ellipse fill="white" stroke="black" cx="10864.13" cy="-320.26" rx="196.65" ry="38.78"/>
<text text-anchor="middle" x="10864.13" y="-332.56" font-family="Times,serif" font-size="14.00">certkeypair/kubelet&#45;bootstrap&#45;kubeconfig&#45;signer</text>
</g>
<!-- 4&#45;&gt;18 -->
<g id="edge11" class="edge">
<title>4&#45;&gt;18</title>
<path fill="none" stroke="black" d="M10747.26,-288.89C10646.83,-262.79 10497.66,-224.02 10365.06,-189.56"/>
<polygon fill="black" stroke="black" points="10365.69,-186.11 10355.13,-186.98 10363.93,-192.88 10365.69,-186.11"/>
</g>
<!-- 20 -->
<g id="node21" class="node">
<title>20</title>
<ellipse fill="#fda172" stroke="black" cx="10864.13" cy="-112.43" rx="284.01" ry="38.37"/>
<text text-anchor="middle" x="10864.13" y="-124.23" font-family="Times,serif" font-size="14.00">cabundle/kubelet&#45;bootstrap&#45;kubeconfig&#45;signer</text>
<text text-anchor="middle" x="10864.13" y="-93.23" font-family="Times,serif" font-size="14.00">configmaps/kubelet&#45;bootstrap&#45;kubeconfig &#45;nopenshift&#45;config&#45;managed</text>
</g>
<!-- 4&#45;&gt;20 -->
<g id="edge12" class="edge">
<title>4&#45;&gt;20</title>
<path fill="none" stroke="black" d="M10864.13,-281.02C10864.13,-247.16 10864.13,-197.6 10864.13,-161.15"/>
<polygon fill="black" stroke="black" points="10867.63,-160.76 10864.13,-150.76 10860.63,-160.76 10867.63,-160.76"/>
</g>
<!-- 4&#45;&gt;28 -->
<g id="edge13" class="edge">
<title>4&#45;&gt;28</title>
<path fill="none" stroke="black" d="M10970.69,-287.43C11026.61,-270.1 11096.02,-247.6 11157.13,-224.86 11216.3,-202.84 11281.67,-175.16 11332.44,-152.9"/>
<polygon fill="black" stroke="black" points="11334,-156.03 11341.74,-148.81 11331.18,-149.63 11334,-156.03"/>
</g>
<!-- 5 -->
<g id="node6" class="node">
<title>5</title>
<ellipse fill="#c7bfff" stroke="black" cx="11420.13" cy="-320.26" rx="302.78" ry="38.37"/>
<text text-anchor="middle" x="11420.13" y="-332.06" font-family="Times,serif" font-size="14.00">certkeypair/kube&#45;apiserver&#45;to&#45;kubelet&#45;signer</text>
<text text-anchor="middle" x="11420.13" y="-301.06" font-family="Times,serif" font-size="14.00">secret/kube&#45;apiserver&#45;to&#45;kubelet&#45;signer &#45;nopenshift&#45;kube&#45;apiserver&#45;operator</text>
</g>
<!-- 6 -->
<g id="node7" class="node">
<title>6</title>
<ellipse fill="#c8fbcd" stroke="black" cx="12463.13" cy="-112.43" rx="771.41" ry="48.58"/>
<text text-anchor="middle" x="12463.13" y="-131.73" font-family="Times,serif" font-size="14.00">certkeypair/kube&#45;apiserver&#45;to&#45;kubelet&#45;client</text>
<text text-anchor="middle" x="12463.13" y="-100.73" font-family="Times,serif" font-size="14.00">secret/kubelet&#45;client &#45;nopenshift&#45;kube&#45;apiserver</text>
<text text-anchor="middle" x="12463.13" y="-85.73" font-family="Times,serif" font-size="14.00"> &#160;&#160;&#160;file:///etc/kubernetes/static&#45;pod&#45;resources/kube&#45;apiserver&#45;certs/secrets/kubelet&#45;client/tls.crt/tls.crt,file:///etc/kubernetes/static&#45;pod&#45;resources/kube&#45;apiserver&#45;certs/secrets/kubelet&#45;client/tls.crt/tls.key</text>
</g>
<!-- 5&#45;&gt;6 -->
<g id="edge14" class="edge">
<title>5&#45;&gt;6</title>
<path fill="none" stroke="black" d="M11579.67,-287.77C11750.83,-254 12024.64,-199.96 12222.09,-161"/>
<polygon fill="black" stroke="black" points="12222.89,-164.41 12232.02,-159.04 12221.53,-157.54 12222.89,-164.41"/>
</g>
<!-- 5&#45;&gt;18 -->
<g id="edge15" class="edge">
<title>5&#45;&gt;18</title>
<path fill="none" stroke="black" d="M11254.12,-288.3C11196.08,-278.35 11130.38,-268.04 11070.13,-260.86 10849.34,-234.53 10791.12,-257.18 10571.13,-224.86 10506.49,-215.36 10437.78,-202.12 10372.67,-188.07"/>
<polygon fill="black" stroke="black" points="10373.19,-184.6 10362.68,-185.89 10371.71,-191.44 10373.19,-184.6"/>
</g>
<!-- 21 -->
<g id="node22" class="node">
<title>21</title>
<ellipse fill="#fda172" stroke="black" cx="13588.13" cy="-112.43" rx="335.34" ry="38.37"/>
<text text-anchor="middle" x="13588.13" y="-124.23" font-family="Times,serif" font-size="14.00">cabundle/kubelet&#45;to&#45;recognize&#45;kube&#45;apiserver&#45;client&#45;ca</text>
<text text-anchor="middle" x="13588.13" y="-93.23" font-family="Times,serif" font-size="14.00">configmaps/kube&#45;apiserver&#45;to&#45;kubelet&#45;client&#45;ca &#45;nopenshift&#45;kube&#45;apiserver&#45;operator</text>
</g>
<!-- 5&#45;&gt;21 -->
<g id="edge16" class="edge">
<title>5&#45;&gt;21</title>
<path fill="none" stroke="black" d="M11566.62,-286.8C11618.62,-276.62 11677.73,-266.56 11732.13,-260.86 12066.17,-225.85 12911.99,-281.06 13243.13,-224.86 13329.21,-210.25 13423.31,-178.75 13491.45,-152.96"/>
<polygon fill="black" stroke="black" points="13492.8,-156.19 13500.89,-149.36 13490.3,-149.65 13492.8,-156.19"/>
</g>
<!-- 5&#45;&gt;28 -->
<g id="edge17" class="edge">
<title>5&#45;&gt;28</title>
<path fill="none" stroke="black" d="M11420.13,-281.98C11420.13,-247.99 11420.13,-197.6 11420.13,-160.78"/>
<polygon fill="black" stroke="black" points="11423.63,-160.77 11420.13,-150.77 11416.63,-160.77 11423.63,-160.77"/>
</g>
<!-- 7 -->
<g id="node8" class="node">
<title>7</title>
<ellipse fill="#c7bfff" stroke="black" cx="17706.13" cy="-453.84" rx="280.94" ry="38.37"/>
<text text-anchor="middle" x="17706.13" y="-465.64" font-family="Times,serif" font-size="14.00">certkeypair/kube&#45;controller&#45;manager&#45;csr&#45;signer&#45;signer</text>
<text text-anchor="middle" x="17706.13" y="-434.64" font-family="Times,serif" font-size="14.00">secret/csr&#45;signer&#45;signer &#45;nopenshift&#45;kube&#45;controller&#45;manager&#45;operator</text>
</g>
<!-- 10 -->
<g id="node11" class="node">
<title>10</title>
<ellipse fill="#c7bfff" stroke="black" cx="16250.13" cy="-320.26" rx="818.66" ry="59.29"/>
<text text-anchor="middle" x="16250.13" y="-347.06" font-family="Times,serif" font-size="14.00">certkeypair/kube&#45;controller&#45;manager&#45;csr&#45;signer</text>
<text text-anchor="middle" x="16250.13" y="-316.06" font-family="Times,serif" font-size="14.00">secret/csr&#45;signer &#45;nopenshift&#45;kube&#45;controller&#45;manager</text>
<text text-anchor="middle" x="16250.13" y="-301.06" font-family="Times,serif" font-size="14.00"> &#160;&#160;&#160;secret/csr&#45;signer &#45;nopenshift&#45;kube&#45;controller&#45;manager&#45;operator</text>
<text text-anchor="middle" x="16250.13" y="-286.06" font-family="Times,serif" font-size="14.00"> &#160;&#160;&#160;file:///etc/kubernetes/static&#45;pod&#45;resources/kube&#45;controller&#45;manager&#45;certs/secrets/csr&#45;signer/tls.crt/tls.crt,file:///etc/kubernetes/static&#45;pod&#45;resources/kube&#45;controller&#45;manager&#45;certs/secrets/csr&#45;signer/tls.crt/tls.key</text>
</g>
<!-- 7&#45;&gt;10 -->
<g id="edge18" class="edge">
<title>7&#45;&gt;10</title>
<path fill="none" stroke="black" d="M17475.42,-431.99C17285.31,-414.81 17008.53,-389.79 16766.11,-367.89"/>
<polygon fill="black" stroke="black" points="16766.32,-364.39 16756.05,-366.98 16765.69,-371.36 16766.32,-364.39"/>
</g>
<!-- 7&#45;&gt;18 -->
<g id="edge19" class="edge">
<title>7&#45;&gt;18</title>
<path fill="none" stroke="black" d="M17425.36,-453.17C16155.12,-454.25 10993.18,-454.02 10658.13,-379.65 10503.43,-345.32 10340.31,-267.34 10225.57,-204.59"/>
<polygon fill="black" stroke="black" points="10227.15,-201.47 10216.7,-199.72 10223.78,-207.61 10227.15,-201.47"/>
</g>
<!-- 22 -->
<g id="node23" class="node">
<title>22</title>
<ellipse fill="#fda172" stroke="black" cx="18156.13" cy="-112.43" rx="646.09" ry="70.01"/>
<text text-anchor="middle" x="18156.13" y="-146.73" font-family="Times,serif" font-size="14.00">cabundle/kube&#45;csr&#45;signer_@1661779985|kubelet&#45;signer|kube&#45;csr&#45;signer_@1661848562|openshift&#45;kube&#45;controller&#45;manager&#45;operator_csr&#45;signer&#45;signer@1661848428</text>
<text text-anchor="middle" x="18156.13" y="-115.73" font-family="Times,serif" font-size="14.00">configmaps/kubelet&#45;serving&#45;ca&#45;12 &#45;nopenshift&#45;kube&#45;apiserver</text>
<text text-anchor="middle" x="18156.13" y="-100.73" font-family="Times,serif" font-size="14.00"> &#160;&#160;&#160;configmaps/kubelet&#45;serving&#45;ca&#45;13 &#45;nopenshift&#45;kube&#45;apiserver</text>
<text text-anchor="middle" x="18156.13" y="-85.73" font-family="Times,serif" font-size="14.00"> &#160;&#160;&#160;file:///etc/kubernetes/static&#45;pod&#45;resources/kube&#45;apiserver&#45;pod&#45;12/configmaps/kubelet&#45;serving&#45;ca/ca&#45;bundle.crt/ca&#45;bundle.crt</text>
<text text-anchor="middle" x="18156.13" y="-70.73" font-family="Times,serif" font-size="14.00"> &#160;&#160;&#160;file:///etc/kubernetes/static&#45;pod&#45;resources/kube&#45;apiserver&#45;pod&#45;13/configmaps/kubelet&#45;serving&#45;ca/ca&#45;bundle.crt/ca&#45;bundle.crt</text>
</g>
<!-- 7&#45;&gt;22 -->
<g id="edge20" class="edge">
<title>7&#45;&gt;22</title>
<path fill="none" stroke="black" d="M17754.71,-416.19C17826.81,-361.81 17963.68,-258.58 18057.37,-187.91"/>
<polygon fill="black" stroke="black" points="18059.58,-190.64 18065.45,-181.82 18055.36,-185.05 18059.58,-190.64"/>
</g>
<!-- 24 -->
<g id="node25" class="node">
<title>24</title>
<ellipse fill="#fda172" stroke="black" cx="20357.13" cy="-112.43" rx="523.02" ry="38.37"/>
<text text-anchor="middle" x="20357.13" y="-124.23" font-family="Times,serif" font-size="14.00">cabundle/kube&#45;csr&#45;signer_@1661779985|kubelet&#45;signer|openshift&#45;kube&#45;controller&#45;manager&#45;operator_csr&#45;signer&#45;signer@1661848428</text>
<text text-anchor="middle" x="20357.13" y="-93.23" font-family="Times,serif" font-size="14.00">configmaps/kubelet&#45;serving&#45;ca&#45;11 &#45;nopenshift&#45;kube&#45;apiserver</text>
</g>
<!-- 7&#45;&gt;24 -->
<g id="edge21" class="edge">
<title>7&#45;&gt;24</title>
<path fill="none" stroke="black" d="M17986.36,-451.14C18536.75,-446.69 19721.19,-431.19 19900.13,-379.65 20059.65,-333.71 20221.78,-219.88 20303.28,-156.97"/>
<polygon fill="black" stroke="black" points="20305.63,-159.57 20311.38,-150.67 20301.34,-154.04 20305.63,-159.57"/>
</g>
<!-- 25 -->
<g id="node26" class="node">
<title>25</title>
<ellipse fill="#fda172" stroke="black" cx="16994.13" cy="-112.43" rx="497.61" ry="112.36"/>
<text text-anchor="middle" x="16994.13" y="-176.73" font-family="Times,serif" font-size="14.00">cabundle/kube&#45;controller&#45;manager&#45;csr&#45;ca</text>
<text text-anchor="middle" x="16994.13" y="-145.73" font-family="Times,serif" font-size="14.00">configmaps/csr&#45;controller&#45;ca &#45;nopenshift&#45;config&#45;managed</text>
<text text-anchor="middle" x="16994.13" y="-130.73" font-family="Times,serif" font-size="14.00"> &#160;&#160;&#160;configmaps/kubelet&#45;serving&#45;ca &#45;nopenshift&#45;config&#45;managed</text>
<text text-anchor="middle" x="16994.13" y="-115.73" font-family="Times,serif" font-size="14.00"> &#160;&#160;&#160;configmaps/kubelet&#45;serving&#45;ca &#45;nopenshift&#45;kube&#45;apiserver</text>
<text text-anchor="middle" x="16994.13" y="-100.73" font-family="Times,serif" font-size="14.00"> &#160;&#160;&#160;configmaps/kubelet&#45;serving&#45;ca&#45;14 &#45;nopenshift&#45;kube&#45;apiserver</text>
<text text-anchor="middle" x="16994.13" y="-85.73" font-family="Times,serif" font-size="14.00"> &#160;&#160;&#160;configmaps/csr&#45;controller&#45;ca &#45;nopenshift&#45;kube&#45;controller&#45;manager&#45;operator</text>
<text text-anchor="middle" x="16994.13" y="-70.73" font-family="Times,serif" font-size="14.00"> &#160;&#160;&#160;configmaps/csr&#45;signer&#45;ca &#45;nopenshift&#45;kube&#45;controller&#45;manager&#45;operator</text>
<text text-anchor="middle" x="16994.13" y="-55.73" font-family="Times,serif" font-size="14.00"> &#160;&#160;&#160;configmaps/kubelet&#45;serving&#45;ca&#45;bundle &#45;nopenshift&#45;monitoring</text>
<text text-anchor="middle" x="16994.13" y="-40.73" font-family="Times,serif" font-size="14.00"> &#160;&#160;&#160;file:///etc/kubernetes/static&#45;pod&#45;resources/kube&#45;apiserver&#45;pod&#45;14/configmaps/kubelet&#45;serving&#45;ca/ca&#45;bundle.crt/ca&#45;bundle.crt</text>
</g>
<!-- 7&#45;&gt;25 -->
<g id="edge22" class="edge">
<title>7&#45;&gt;25</title>
<path fill="none" stroke="black" d="M17630.94,-417C17532.91,-370.27 17357.21,-286.51 17215.16,-218.8"/>
<polygon fill="black" stroke="black" points="17216.39,-215.5 17205.85,-214.36 17213.37,-221.82 17216.39,-215.5"/>
</g>
<!-- 26 -->
<g id="node27" class="node">
<title>26</title>
<ellipse fill="#fda172" stroke="black" cx="19562.13" cy="-320.26" rx="328.61" ry="38.37"/>
<text text-anchor="middle" x="19562.13" y="-332.06" font-family="Times,serif" font-size="14.00">cabundle/kube&#45;controller&#45;manager&#45;csr&#45;signer&#45;signer&#45;ca</text>
<text text-anchor="middle" x="19562.13" y="-301.06" font-family="Times,serif" font-size="14.00">configmaps/csr&#45;controller&#45;signer&#45;ca &#45;nopenshift&#45;kube&#45;controller&#45;manager&#45;operator</text>
</g>
<!-- 7&#45;&gt;26 -->
<g id="edge23" class="edge">
<title>7&#45;&gt;26</title>
<path fill="none" stroke="black" d="M17985.32,-449.65C18290.46,-443.77 18793.36,-427.07 19224.13,-379.65 19278.21,-373.7 19336.74,-364.56 19389.65,-355.26"/>
<polygon fill="black" stroke="black" points="19390.57,-358.66 19399.81,-353.47 19389.35,-351.76 19390.57,-358.66"/>
</g>
<!-- 8 -->
<g id="node9" class="node">
<title>8</title>
<ellipse fill="white" stroke="black" cx="18302.13" cy="-320.26" rx="111.95" ry="38.78"/>
<text text-anchor="middle" x="18302.13" y="-332.56" font-family="Times,serif" font-size="14.00">certkeypair/kubelet&#45;signer</text>
</g>
<!-- 8&#45;&gt;22 -->
<g id="edge24" class="edge">
<title>8&#45;&gt;22</title>
<path fill="none" stroke="black" d="M18275.69,-281.98C18257.66,-256.57 18233.13,-221.98 18210.98,-190.76"/>
<polygon fill="black" stroke="black" points="18213.74,-188.61 18205.1,-182.47 18208.03,-192.66 18213.74,-188.61"/>
</g>
<!-- 23 -->
<g id="node24" class="node">
<title>23</title>
<ellipse fill="#fda172" stroke="black" cx="19318.13" cy="-112.43" rx="497.61" ry="112.36"/>
<text text-anchor="middle" x="19318.13" y="-176.73" font-family="Times,serif" font-size="14.00">cabundle/kube&#45;csr&#45;signer_@1661779985|kubelet&#45;signer</text>
<text text-anchor="middle" x="19318.13" y="-145.73" font-family="Times,serif" font-size="14.00">configmaps/kubelet&#45;serving&#45;ca&#45;10 &#45;nopenshift&#45;kube&#45;apiserver</text>
<text text-anchor="middle" x="19318.13" y="-130.73" font-family="Times,serif" font-size="14.00"> &#160;&#160;&#160;configmaps/kubelet&#45;serving&#45;ca&#45;5 &#45;nopenshift&#45;kube&#45;apiserver</text>
<text text-anchor="middle" x="19318.13" y="-115.73" font-family="Times,serif" font-size="14.00"> &#160;&#160;&#160;configmaps/kubelet&#45;serving&#45;ca&#45;6 &#45;nopenshift&#45;kube&#45;apiserver</text>
<text text-anchor="middle" x="19318.13" y="-100.73" font-family="Times,serif" font-size="14.00"> &#160;&#160;&#160;configmaps/kubelet&#45;serving&#45;ca&#45;7 &#45;nopenshift&#45;kube&#45;apiserver</text>
<text text-anchor="middle" x="19318.13" y="-85.73" font-family="Times,serif" font-size="14.00"> &#160;&#160;&#160;configmaps/kubelet&#45;serving&#45;ca&#45;8 &#45;nopenshift&#45;kube&#45;apiserver</text>
<text text-anchor="middle" x="19318.13" y="-70.73" font-family="Times,serif" font-size="14.00"> &#160;&#160;&#160;configmaps/kubelet&#45;serving&#45;ca&#45;9 &#45;nopenshift&#45;kube&#45;apiserver</text>
<text text-anchor="middle" x="19318.13" y="-55.73" font-family="Times,serif" font-size="14.00"> &#160;&#160;&#160;file:///etc/kubernetes/static&#45;pod&#45;resources/kube&#45;apiserver&#45;pod&#45;10/configmaps/kubelet&#45;serving&#45;ca/ca&#45;bundle.crt/ca&#45;bundle.crt</text>
<text text-anchor="middle" x="19318.13" y="-40.73" font-family="Times,serif" font-size="14.00"> &#160;&#160;&#160;file:///etc/kubernetes/static&#45;pod&#45;resources/kube&#45;apiserver&#45;pod&#45;9/configmaps/kubelet&#45;serving&#45;ca/ca&#45;bundle.crt/ca&#45;bundle.crt</text>
</g>
<!-- 8&#45;&gt;23 -->
<g id="edge25" class="edge">
<title>8&#45;&gt;23</title>
<path fill="none" stroke="black" d="M18400.84,-301.94C18503.53,-283.7 18668.87,-253.68 18811.13,-224.86 18858.43,-215.28 18908.13,-204.83 18957.15,-194.29"/>
<polygon fill="black" stroke="black" points="18957.91,-197.71 18966.95,-192.19 18956.44,-190.87 18957.91,-197.71"/>
</g>
<!-- 8&#45;&gt;24 -->
<g id="edge26" class="edge">
<title>8&#45;&gt;24</title>
<path fill="none" stroke="black" d="M18406.23,-305.99C18516.32,-292.48 18695.17,-271.96 18850.13,-260.86 19282.65,-229.87 19394.7,-277.5 19825.13,-224.86 19955.92,-208.86 20102.32,-177.16 20208.38,-151.65"/>
<polygon fill="black" stroke="black" points="20209.3,-155.03 20218.19,-149.28 20207.65,-148.23 20209.3,-155.03"/>
</g>
<!-- 8&#45;&gt;28 -->
<g id="edge27" class="edge">
<title>8&#45;&gt;28</title>
<path fill="none" stroke="black" d="M18192.46,-312.51C17978.36,-299.68 17489.63,-272.04 17078.13,-260.86 16928.32,-256.79 11829.89,-255.18 11683.13,-224.86 11616.24,-211.04 11545.2,-179.84 11493.83,-153.96"/>
<polygon fill="black" stroke="black" points="11495.3,-150.78 11484.8,-149.36 11492.12,-157.01 11495.3,-150.78"/>
</g>
<!-- 9 -->
<g id="node10" class="node">
<title>9</title>
<ellipse fill="white" stroke="black" cx="19037.13" cy="-320.26" rx="178.38" ry="38.78"/>
<text text-anchor="middle" x="19037.13" y="-332.56" font-family="Times,serif" font-size="14.00">certkeypair/kube&#45;csr&#45;signer_@1661779985</text>
</g>
<!-- 9&#45;&gt;22 -->
<g id="edge28" class="edge">
<title>9&#45;&gt;22</title>
<path fill="none" stroke="black" d="M18917.39,-291.28C18794.01,-262.46 18597.29,-216.5 18434.73,-178.52"/>
<polygon fill="black" stroke="black" points="18435.1,-175.01 18424.57,-176.15 18433.51,-181.83 18435.1,-175.01"/>
</g>
<!-- 9&#45;&gt;23 -->
<g id="edge29" class="edge">
<title>9&#45;&gt;23</title>
<path fill="none" stroke="black" d="M19087.04,-282.7C19109.07,-266.56 19136.29,-246.62 19164.22,-226.17"/>
<polygon fill="black" stroke="black" points="19166.51,-228.83 19172.5,-220.1 19162.37,-223.18 19166.51,-228.83"/>
</g>
<!-- 9&#45;&gt;24 -->
<g id="edge30" class="edge">
<title>9&#45;&gt;24</title>
<path fill="none" stroke="black" d="M19126.38,-286.54C19156.97,-276.63 19191.68,-266.81 19224.13,-260.86 19487.33,-212.62 19559.91,-260.38 19825.13,-224.86 19954.37,-207.55 20099.1,-176.46 20204.93,-151.51"/>
<polygon fill="black" stroke="black" points="20205.8,-154.9 20214.73,-149.19 20204.19,-148.09 20205.8,-154.9"/>
</g>
<!-- 11 -->
<g id="node12" class="node">
<title>11</title>
<ellipse fill="#c8fbcd" stroke="black" cx="14922.13" cy="-112.43" rx="483.82" ry="38.37"/>
<text text-anchor="middle" x="14922.13" y="-124.23" font-family="Times,serif" font-size="14.00">certkeypair/system:serviceaccount:openshift&#45;monitoring:prometheus&#45;k8s::218688643794807735746504063600150770281</text>
<text text-anchor="middle" x="14922.13" y="-93.23" font-family="Times,serif" font-size="14.00">secret/metrics&#45;client&#45;certs &#45;nopenshift&#45;monitoring</text>
</g>
<!-- 10&#45;&gt;11 -->
<g id="edge31" class="edge">
<title>10&#45;&gt;11</title>
<path fill="none" stroke="black" d="M15757.62,-272.79C15644.45,-259.58 15524.84,-243.59 15414.13,-224.86 15297.77,-205.18 15167.59,-175.34 15070.38,-151.5"/>
<polygon fill="black" stroke="black" points="15071.03,-148.05 15060.49,-149.06 15069.36,-154.85 15071.03,-148.05"/>
</g>
<!-- 12 -->
<g id="node13" class="node">
<title>12</title>
<ellipse fill="#c8fbcd" stroke="black" cx="15951.13" cy="-112.43" rx="527.5" ry="38.37"/>
<text text-anchor="middle" x="15951.13" y="-124.23" font-family="Times,serif" font-size="14.00">certkeypair/system:serviceaccount:openshift&#45;oauth&#45;apiserver:openshift&#45;authenticator::322659822661055883015959461509013472419</text>
<text text-anchor="middle" x="15951.13" y="-93.23" font-family="Times,serif" font-size="14.00">secret/openshift&#45;authenticator&#45;certs &#45;nopenshift&#45;oauth&#45;apiserver</text>
</g>
<!-- 10&#45;&gt;12 -->
<g id="edge32" class="edge">
<title>10&#45;&gt;12</title>
<path fill="none" stroke="black" d="M16165.64,-261.1C16117.3,-227.82 16057.69,-186.78 16013.58,-156.42"/>
<polygon fill="black" stroke="black" points="16015.48,-153.48 16005.26,-150.69 16011.51,-159.24 16015.48,-153.48"/>
</g>
<!-- 10&#45;&gt;18 -->
<g id="edge33" class="edge">
<title>10&#45;&gt;18</title>
<path fill="none" stroke="black" d="M15448.67,-308.03C13911.66,-286.22 10690.26,-239 10571.13,-224.86 10503.71,-216.86 10432.03,-203.69 10364.65,-189.16"/>
<polygon fill="black" stroke="black" points="10365.26,-185.71 10354.74,-187 10363.77,-192.55 10365.26,-185.71"/>
</g>
<!-- 10&#45;&gt;22 -->
<g id="edge34" class="edge">
<title>10&#45;&gt;22</title>
<path fill="none" stroke="black" d="M16886.07,-282.79C17083.55,-268.38 17301.69,-249.29 17501.13,-224.86 17608.3,-211.73 17724.67,-193.3 17829.18,-175.21"/>
<polygon fill="black" stroke="black" points="17830,-178.62 17839.26,-173.46 17828.81,-171.72 17830,-178.62"/>
</g>
<!-- 10&#45;&gt;25 -->
<g id="edge35" class="edge">
<title>10&#45;&gt;25</title>
<path fill="none" stroke="black" d="M16454.9,-262.61C16521.9,-244.07 16598.04,-223.01 16671.56,-202.67"/>
<polygon fill="black" stroke="black" points="16672.74,-205.97 16681.44,-199.93 16670.87,-199.23 16672.74,-205.97"/>
</g>
<!-- 13 -->
<g id="node14" class="node">
<title>13</title>
<ellipse fill="#c7bfff" stroke="black" cx="11986.13" cy="-320.26" rx="245.23" ry="38.37"/>
<text text-anchor="middle" x="11986.13" y="-332.06" font-family="Times,serif" font-size="14.00">certkeypair/admin&#45;kubeconfig&#45;signer::275315413158891686</text>
<text text-anchor="middle" x="11986.13" y="-301.06" font-family="Times,serif" font-size="14.00">file:///etc/kubernetes/kubelet&#45;ca.crt/kubelet&#45;ca.crt,file://</text>
</g>
<!-- 13&#45;&gt;18 -->
<g id="edge36" class="edge">
<title>13&#45;&gt;18</title>
<path fill="none" stroke="black" d="M11867.15,-286.86C11824.85,-276.68 11776.67,-266.61 11732.13,-260.86 11220.13,-194.71 11083.32,-289.4 10571.13,-224.86 10504.39,-216.45 10433.45,-203.26 10366.63,-188.85"/>
<polygon fill="black" stroke="black" points="10367.32,-185.42 10356.8,-186.71 10365.83,-192.26 10367.32,-185.42"/>
</g>
<!-- 27 -->
<g id="node28" class="node">
<title>27</title>
<ellipse fill="#fda172" stroke="black" cx="14181.13" cy="-112.43" rx="239.92" ry="38.37"/>
<text text-anchor="middle" x="14181.13" y="-124.23" font-family="Times,serif" font-size="14.00">cabundle/kube&#45;apiserver&#45;admin&#45;kubeconfig&#45;client&#45;ca</text>
<text text-anchor="middle" x="14181.13" y="-93.23" font-family="Times,serif" font-size="14.00">configmaps/admin&#45;kubeconfig&#45;client&#45;ca &#45;nopenshift&#45;config</text>
</g>
<!-- 13&#45;&gt;27 -->
<g id="edge37" class="edge">
<title>13&#45;&gt;27</title>
<path fill="none" stroke="black" d="M12231.41,-318.66C12680.2,-315.69 13616.41,-300.32 13932.13,-224.86 13994.66,-209.91 14060.89,-179.49 14109.31,-154.2"/>
<polygon fill="black" stroke="black" points="14111.24,-157.14 14118.45,-149.38 14107.97,-150.95 14111.24,-157.14"/>
</g>
<!-- 13&#45;&gt;28 -->
<g id="edge38" class="edge">
<title>13&#45;&gt;28</title>
<path fill="none" stroke="black" d="M11871.57,-286.48C11814.49,-269.41 11744.69,-247.43 11683.13,-224.86 11623.74,-203.09 11558.23,-175.35 11507.45,-152.99"/>
<polygon fill="black" stroke="black" points="11508.71,-149.72 11498.15,-148.88 11505.88,-156.12 11508.71,-149.72"/>
</g>
</g>
</svg>
