<?xml version="1.0" encoding="UTF-8" standalone="no"?>
<!DOCTYPE svg PUBLIC "-//W3C//DTD SVG 1.1//EN"
 "http://www.w3.org/Graphics/SVG/1.1/DTD/svg11.dtd">
<!-- Generated by graphviz version 5.0.1 (20220820.1526)
 -->
<!-- Title: OpenShift Certificates Pages: 1 -->
<svg width="6333pt" height="813pt"
 viewBox="0.00 0.00 6332.65 813.33" xmlns="http://www.w3.org/2000/svg" xmlns:xlink="http://www.w3.org/1999/xlink">
<g id="graph0" class="graph" transform="scale(1 1) rotate(0) translate(4 809.33)">
<title>OpenShift Certificates</title>
<polygon fill="white" stroke="none" points="-4,4 -4,-809.33 6328.65,-809.33 6328.65,4 -4,4"/>
<!-- 0 -->
<g id="node1" class="node">
<title>0</title>
<ellipse fill="#c8fbcd" stroke="black" cx="292.74" cy="-345.78" rx="228.29" ry="38.37"/>
<text text-anchor="middle" x="292.74" y="-357.58" font-family="Times,serif" font-size="14.00">certkeypair/::1658</text>
<text text-anchor="middle" x="292.74" y="-326.58" font-family="Times,serif" font-size="14.00">secret/pprof&#45;cert &#45;nopenshift&#45;operator&#45;lifecycle&#45;manager</text>
</g>
<!-- 1 -->
<g id="node2" class="node">
<title>1</title>
<ellipse fill="white" stroke="black" cx="832.74" cy="-766.44" rx="229.21" ry="38.78"/>
<text text-anchor="middle" x="832.74" y="-778.74" font-family="Times,serif" font-size="14.00">certkeypair/NAVER Global Root Certification Authority</text>
</g>
<!-- 16 -->
<g id="node17" class="node">
<title>16</title>
<ellipse fill="#fda172" stroke="black" cx="3146.74" cy="-345.78" rx="523.02" ry="345.55"/>
<text text-anchor="middle" x="3146.74" y="-575.08" font-family="Times,serif" font-size="14.00">cabundle/proxy&#45;ca</text>
<text text-anchor="middle" x="3146.74" y="-544.08" font-family="Times,serif" font-size="14.00">configmaps/trusted&#45;ca&#45;bundle &#45;nopenshift&#45;apiserver</text>
<text text-anchor="middle" x="3146.74" y="-529.08" font-family="Times,serif" font-size="14.00"> &#160;&#160;&#160;configmaps/trusted&#45;ca&#45;bundle &#45;nopenshift&#45;apiserver&#45;operator</text>
<text text-anchor="middle" x="3146.74" y="-514.08" font-family="Times,serif" font-size="14.00"> &#160;&#160;&#160;configmaps/v4&#45;0&#45;config&#45;system&#45;trusted&#45;ca&#45;bundle &#45;nopenshift&#45;authentication</text>
<text text-anchor="middle" x="3146.74" y="-499.08" font-family="Times,serif" font-size="14.00"> &#160;&#160;&#160;configmaps/trusted&#45;ca&#45;bundle &#45;nopenshift&#45;authentication&#45;operator</text>
<text text-anchor="middle" x="3146.74" y="-484.08" font-family="Times,serif" font-size="14.00"> &#160;&#160;&#160;configmaps/ccm&#45;trusted&#45;ca &#45;nopenshift&#45;cloud&#45;controller&#45;manager</text>
<text text-anchor="middle" x="3146.74" y="-469.08" font-family="Times,serif" font-size="14.00"> &#160;&#160;&#160;configmaps/cco&#45;trusted&#45;ca &#45;nopenshift&#45;cloud&#45;credential&#45;operator</text>
<text text-anchor="middle" x="3146.74" y="-454.08" font-family="Times,serif" font-size="14.00"> &#160;&#160;&#160;configmaps/trusted&#45;ca &#45;nopenshift&#45;cloud&#45;network&#45;config&#45;controller</text>
<text text-anchor="middle" x="3146.74" y="-439.08" font-family="Times,serif" font-size="14.00"> &#160;&#160;&#160;configmaps/aws&#45;ebs&#45;csi&#45;driver&#45;trusted&#45;ca&#45;bundle &#45;nopenshift&#45;cluster&#45;csi&#45;drivers</text>
<text text-anchor="middle" x="3146.74" y="-424.08" font-family="Times,serif" font-size="14.00"> &#160;&#160;&#160;configmaps/trusted&#45;ca &#45;nopenshift&#45;cluster&#45;node&#45;tuning&#45;operator</text>
<text text-anchor="middle" x="3146.74" y="-409.08" font-family="Times,serif" font-size="14.00"> &#160;&#160;&#160;configmaps/trusted&#45;ca&#45;bundle &#45;nopenshift&#45;config&#45;managed</text>
<text text-anchor="middle" x="3146.74" y="-394.08" font-family="Times,serif" font-size="14.00"> &#160;&#160;&#160;configmaps/trusted&#45;ca&#45;bundle &#45;nopenshift&#45;console</text>
<text text-anchor="middle" x="3146.74" y="-379.08" font-family="Times,serif" font-size="14.00"> &#160;&#160;&#160;configmaps/openshift&#45;global&#45;ca &#45;nopenshift&#45;controller&#45;manager</text>
<text text-anchor="middle" x="3146.74" y="-364.08" font-family="Times,serif" font-size="14.00"> &#160;&#160;&#160;configmaps/trusted&#45;ca &#45;nopenshift&#45;image&#45;registry</text>
<text text-anchor="middle" x="3146.74" y="-349.08" font-family="Times,serif" font-size="14.00"> &#160;&#160;&#160;configmaps/trusted&#45;ca &#45;nopenshift&#45;ingress&#45;operator</text>
<text text-anchor="middle" x="3146.74" y="-334.08" font-family="Times,serif" font-size="14.00"> &#160;&#160;&#160;configmaps/trusted&#45;ca&#45;bundle &#45;nopenshift&#45;insights</text>
<text text-anchor="middle" x="3146.74" y="-319.08" font-family="Times,serif" font-size="14.00"> &#160;&#160;&#160;configmaps/trusted&#45;ca&#45;bundle &#45;nopenshift&#45;kube&#45;apiserver</text>
<text text-anchor="middle" x="3146.74" y="-304.08" font-family="Times,serif" font-size="14.00"> &#160;&#160;&#160;configmaps/trusted&#45;ca&#45;bundle &#45;nopenshift&#45;kube&#45;controller&#45;manager</text>
<text text-anchor="middle" x="3146.74" y="-289.08" font-family="Times,serif" font-size="14.00"> &#160;&#160;&#160;configmaps/cbo&#45;trusted&#45;ca &#45;nopenshift&#45;machine&#45;api</text>
<text text-anchor="middle" x="3146.74" y="-274.08" font-family="Times,serif" font-size="14.00"> &#160;&#160;&#160;configmaps/mao&#45;trusted&#45;ca &#45;nopenshift&#45;machine&#45;api</text>
<text text-anchor="middle" x="3146.74" y="-259.08" font-family="Times,serif" font-size="14.00"> &#160;&#160;&#160;configmaps/marketplace&#45;trusted&#45;ca &#45;nopenshift&#45;marketplace</text>
<text text-anchor="middle" x="3146.74" y="-244.08" font-family="Times,serif" font-size="14.00"> &#160;&#160;&#160;configmaps/alertmanager&#45;trusted&#45;ca&#45;bundle &#45;nopenshift&#45;monitoring</text>
<text text-anchor="middle" x="3146.74" y="-229.08" font-family="Times,serif" font-size="14.00"> &#160;&#160;&#160;configmaps/alertmanager&#45;trusted&#45;ca&#45;bundle&#45;2rsonso43rc5p &#45;nopenshift&#45;monitoring</text>
<text text-anchor="middle" x="3146.74" y="-214.08" font-family="Times,serif" font-size="14.00"> &#160;&#160;&#160;configmaps/prometheus&#45;trusted&#45;ca&#45;bundle &#45;nopenshift&#45;monitoring</text>
<text text-anchor="middle" x="3146.74" y="-199.08" font-family="Times,serif" font-size="14.00"> &#160;&#160;&#160;configmaps/prometheus&#45;trusted&#45;ca&#45;bundle&#45;2rsonso43rc5p &#45;nopenshift&#45;monitoring</text>
<text text-anchor="middle" x="3146.74" y="-184.08" font-family="Times,serif" font-size="14.00"> &#160;&#160;&#160;configmaps/telemeter&#45;trusted&#45;ca&#45;bundle &#45;nopenshift&#45;monitoring</text>
<text text-anchor="middle" x="3146.74" y="-169.08" font-family="Times,serif" font-size="14.00"> &#160;&#160;&#160;configmaps/telemeter&#45;trusted&#45;ca&#45;bundle&#45;2rsonso43rc5p &#45;nopenshift&#45;monitoring</text>
<text text-anchor="middle" x="3146.74" y="-154.08" font-family="Times,serif" font-size="14.00"> &#160;&#160;&#160;configmaps/thanos&#45;querier&#45;trusted&#45;ca&#45;bundle &#45;nopenshift&#45;monitoring</text>
<text text-anchor="middle" x="3146.74" y="-139.08" font-family="Times,serif" font-size="14.00"> &#160;&#160;&#160;configmaps/thanos&#45;querier&#45;trusted&#45;ca&#45;bundle&#45;2rsonso43rc5p &#45;nopenshift&#45;monitoring</text>
<text text-anchor="middle" x="3146.74" y="-124.08" font-family="Times,serif" font-size="14.00"> &#160;&#160;&#160;file:///etc/kubernetes/static&#45;pod&#45;resources/kube&#45;apiserver&#45;certs/configmaps/trusted&#45;ca&#45;bundle/ca&#45;bundle.crt/ca&#45;bundle.crt</text>
<text text-anchor="middle" x="3146.74" y="-109.08" font-family="Times,serif" font-size="14.00"> &#160;&#160;&#160;file:///etc/kubernetes/static&#45;pod&#45;resources/kube&#45;controller&#45;manager&#45;certs/configmaps/trusted&#45;ca&#45;bundle/ca&#45;bundle.crt/ca&#45;bundle.crt</text>
</g>
<!-- 1&#45;&gt;16 -->
<g id="edge1" class="edge">
<title>1&#45;&gt;16</title>
<path fill="none" stroke="black" d="M986.81,-737.57C1316.87,-677.85 2104.99,-535.26 2632.32,-439.85"/>
<polygon fill="black" stroke="black" points="2633.18,-443.25 2642.39,-438.03 2631.93,-436.36 2633.18,-443.25"/>
</g>
<!-- 2 -->
<g id="node3" class="node">
<title>2</title>
<ellipse fill="white" stroke="black" cx="1220.74" cy="-766.44" rx="140.93" ry="38.78"/>
<text text-anchor="middle" x="1220.74" y="-778.74" font-family="Times,serif" font-size="14.00">certkeypair/GlobalSign Root R46</text>
</g>
<!-- 2&#45;&gt;16 -->
<g id="edge2" class="edge">
<title>2&#45;&gt;16</title>
<path fill="none" stroke="black" d="M1321.88,-739.36C1338.19,-735.31 1354.92,-731.24 1370.74,-727.55 1796.29,-628.22 2281.54,-524.85 2637.16,-450.92"/>
<polygon fill="black" stroke="black" points="2638.03,-454.31 2647.11,-448.85 2636.61,-447.46 2638.03,-454.31"/>
</g>
<!-- 3 -->
<g id="node4" class="node">
<title>3</title>
<ellipse fill="white" stroke="black" cx="1519.74" cy="-766.44" rx="140.01" ry="38.78"/>
<text text-anchor="middle" x="1519.74" y="-778.74" font-family="Times,serif" font-size="14.00">certkeypair/GlobalSign Root E46</text>
</g>
<!-- 3&#45;&gt;16 -->
<g id="edge3" class="edge">
<title>3&#45;&gt;16</title>
<path fill="none" stroke="black" d="M1620.9,-739.41C1822.4,-687.56 2285.74,-568.33 2649.33,-474.77"/>
<polygon fill="black" stroke="black" points="2650.44,-478.1 2659.25,-472.22 2648.69,-471.32 2650.44,-478.1"/>
</g>
<!-- 4 -->
<g id="node5" class="node">
<title>4</title>
<ellipse fill="white" stroke="black" cx="1825.74" cy="-766.44" rx="147.57" ry="38.78"/>
<text text-anchor="middle" x="1825.74" y="-778.74" font-family="Times,serif" font-size="14.00">certkeypair/GLOBALTRUST 2020</text>
</g>
<!-- 4&#45;&gt;16 -->
<g id="edge4" class="edge">
<title>4&#45;&gt;16</title>
<path fill="none" stroke="black" d="M1918.37,-736.08C2072.4,-687.27 2391.39,-586.17 2665.7,-499.23"/>
<polygon fill="black" stroke="black" points="2666.97,-502.5 2675.44,-496.14 2664.85,-495.83 2666.97,-502.5"/>
</g>
<!-- 5 -->
<g id="node6" class="node">
<title>5</title>
<ellipse fill="white" stroke="black" cx="2160.74" cy="-766.44" rx="169.91" ry="38.78"/>
<text text-anchor="middle" x="2160.74" y="-778.74" font-family="Times,serif" font-size="14.00">certkeypair/ANF Secure Server Root CA</text>
</g>
<!-- 5&#45;&gt;16 -->
<g id="edge5" class="edge">
<title>5&#45;&gt;16</title>
<path fill="none" stroke="black" d="M2239.76,-731.89C2340.55,-689.09 2522.81,-611.7 2697.64,-537.47"/>
<polygon fill="black" stroke="black" points="2699.18,-540.62 2707.02,-533.49 2696.45,-534.17 2699.18,-540.62"/>
</g>
<!-- 6 -->
<g id="node7" class="node">
<title>6</title>
<ellipse fill="white" stroke="black" cx="2608.74" cy="-766.44" rx="260.43" ry="38.78"/>
<text text-anchor="middle" x="2608.74" y="-778.74" font-family="Times,serif" font-size="14.00">certkeypair/Trustwave Global ECC P384 Certification Authority</text>
</g>
<!-- 6&#45;&gt;16 -->
<g id="edge6" class="edge">
<title>6&#45;&gt;16</title>
<path fill="none" stroke="black" d="M2656.96,-727.92C2692.37,-700.36 2744.01,-660.18 2800.62,-616.12"/>
<polygon fill="black" stroke="black" points="2802.9,-618.78 2808.64,-609.88 2798.6,-613.26 2802.9,-618.78"/>
</g>
<!-- 7 -->
<g id="node8" class="node">
<title>7</title>
<ellipse fill="white" stroke="black" cx="3146.74" cy="-766.44" rx="260.43" ry="38.78"/>
<text text-anchor="middle" x="3146.74" y="-778.74" font-family="Times,serif" font-size="14.00">certkeypair/Trustwave Global ECC P256 Certification Authority</text>
</g>
<!-- 7&#45;&gt;16 -->
<g id="edge7" class="edge">
<title>7&#45;&gt;16</title>
<path fill="none" stroke="black" d="M3146.74,-727.55C3146.74,-719.86 3146.74,-711.19 3146.74,-701.74"/>
<polygon fill="black" stroke="black" points="3150.24,-701.61 3146.74,-691.61 3143.24,-701.61 3150.24,-701.61"/>
</g>
<!-- 8 -->
<g id="node9" class="node">
<title>8</title>
<ellipse fill="white" stroke="black" cx="3579.74" cy="-766.44" rx="154.71" ry="38.78"/>
<text text-anchor="middle" x="3579.74" y="-778.74" font-family="Times,serif" font-size="14.00">certkeypair/Certum Trusted Root CA</text>
</g>
<!-- 8&#45;&gt;16 -->
<g id="edge8" class="edge">
<title>8&#45;&gt;16</title>
<path fill="none" stroke="black" d="M3541.7,-728.65C3518.09,-705.83 3485.33,-674.15 3448.67,-638.7"/>
<polygon fill="black" stroke="black" points="3450.91,-636 3441.28,-631.57 3446.04,-641.03 3450.91,-636"/>
</g>
<!-- 9 -->
<g id="node10" class="node">
<title>9</title>
<ellipse fill="white" stroke="black" cx="3887.74" cy="-766.44" rx="135.11" ry="38.78"/>
<text text-anchor="middle" x="3887.74" y="-778.74" font-family="Times,serif" font-size="14.00">certkeypair/Certum EC&#45;384 CA</text>
</g>
<!-- 9&#45;&gt;16 -->
<g id="edge9" class="edge">
<title>9&#45;&gt;16</title>
<path fill="none" stroke="black" d="M3827.73,-731.53C3765.08,-696.14 3661.05,-637.36 3552.92,-576.27"/>
<polygon fill="black" stroke="black" points="3554.56,-573.17 3544.13,-571.3 3551.11,-579.27 3554.56,-573.17"/>
</g>
<!-- 10 -->
<g id="node11" class="node">
<title>10</title>
<ellipse fill="white" stroke="black" cx="4297.74" cy="-766.44" rx="256.86" ry="38.78"/>
<text text-anchor="middle" x="4297.74" y="-778.74" font-family="Times,serif" font-size="14.00">certkeypair/AC RAIZ FNMT&#45;RCM SERVIDORES SEGUROS</text>
</g>
<!-- 10&#45;&gt;16 -->
<g id="edge10" class="edge">
<title>10&#45;&gt;16</title>
<path fill="none" stroke="black" d="M4201.09,-730.29C4071.46,-683.13 3832.31,-596.14 3614.51,-516.92"/>
<polygon fill="black" stroke="black" points="3615.4,-513.52 3604.81,-513.39 3613.01,-520.1 3615.4,-513.52"/>
</g>
<!-- 11 -->
<g id="node12" class="node">
<title>11</title>
<ellipse fill="white" stroke="black" cx="4788.74" cy="-766.44" rx="216.25" ry="38.78"/>
<text text-anchor="middle" x="4788.74" y="-778.74" font-family="Times,serif" font-size="14.00">certkeypair/Trustwave Global Certification Authority</text>
</g>
<!-- 11&#45;&gt;16 -->
<g id="edge11" class="edge">
<title>11&#45;&gt;16</title>
<path fill="none" stroke="black" d="M4666.67,-734.32C4453.08,-679.86 4000.41,-564.44 3644.34,-473.65"/>
<polygon fill="black" stroke="black" points="3645.18,-470.25 3634.63,-471.17 3643.45,-477.04 3645.18,-470.25"/>
</g>
<!-- 12 -->
<g id="node13" class="node">
<title>12</title>
<ellipse fill="white" stroke="black" cx="5263.74" cy="-766.44" rx="241.25" ry="38.78"/>
<text text-anchor="middle" x="5263.74" y="-778.74" font-family="Times,serif" font-size="14.00">certkeypair/Microsoft RSA Root Certificate Authority 2017</text>
</g>
<!-- 12&#45;&gt;16 -->
<g id="edge12" class="edge">
<title>12&#45;&gt;16</title>
<path fill="none" stroke="black" d="M5114.04,-735.83C4815.6,-676.82 4134.34,-542.09 3657.61,-447.81"/>
<polygon fill="black" stroke="black" points="3658.29,-444.37 3647.8,-445.87 3656.93,-451.24 3658.29,-444.37"/>
</g>
<!-- 13 -->
<g id="node14" class="node">
<title>13</title>
<ellipse fill="white" stroke="black" cx="5764.74" cy="-766.44" rx="241.66" ry="38.78"/>
<text text-anchor="middle" x="5764.74" y="-778.74" font-family="Times,serif" font-size="14.00">certkeypair/Microsoft ECC Root Certificate Authority 2017</text>
</g>
<!-- 13&#45;&gt;16 -->
<g id="edge13" class="edge">
<title>13&#45;&gt;16</title>
<path fill="none" stroke="black" d="M5596.24,-738.49C5213.06,-677.22 4263.35,-525.34 3665.37,-429.71"/>
<polygon fill="black" stroke="black" points="3665.71,-426.22 3655.28,-428.1 3664.6,-433.13 3665.71,-426.22"/>
</g>
<!-- 14 -->
<g id="node15" class="node">
<title>14</title>
<ellipse fill="white" stroke="black" cx="6174.74" cy="-766.44" rx="149.81" ry="38.78"/>
<text text-anchor="middle" x="6174.74" y="-778.74" font-family="Times,serif" font-size="14.00">certkeypair/e&#45;Szigno Root CA 2017</text>
</g>
<!-- 14&#45;&gt;16 -->
<g id="edge14" class="edge">
<title>14&#45;&gt;16</title>
<path fill="none" stroke="black" d="M6069.44,-738.75C6051.58,-734.69 6033.18,-730.78 6015.74,-727.55 5203.61,-577.29 4251.57,-463.01 3674.12,-400.45"/>
<polygon fill="black" stroke="black" points="3674.27,-396.94 3663.95,-399.35 3673.51,-403.9 3674.27,-396.94"/>
</g>
<!-- 15 -->
<g id="node16" class="node">
<title>15</title>
<ellipse fill="#fffdb8" stroke="black" cx="292.74" cy="-766.44" rx="292.98" ry="38.37"/>
<text text-anchor="middle" x="292.74" y="-778.24" font-family="Times,serif" font-size="14.00">certkeypair/::6293028270596117347</text>
<text text-anchor="middle" x="292.74" y="-747.24" font-family="Times,serif" font-size="14.00">secret/packageserver&#45;service&#45;cert &#45;nopenshift&#45;operator&#45;lifecycle&#45;manager</text>
</g>
<!-- 15&#45;&gt;0 -->
<g id="edge15" class="edge">
<title>15&#45;&gt;0</title>
<path fill="none" stroke="black" d="M292.74,-727.92C292.74,-651.52 292.74,-478.07 292.74,-394.09"/>
<polygon fill="black" stroke="black" points="296.24,-394.06 292.74,-384.06 289.24,-394.06 296.24,-394.06"/>
</g>
<!-- 15&#45;&gt;16 -->
<g id="edge16" class="edge">
<title>15&#45;&gt;16</title>
<path fill="none" stroke="black" d="M483.6,-737.44C915.75,-674.05 1981.52,-517.71 2626.16,-423.14"/>
<polygon fill="black" stroke="black" points="2626.71,-426.6 2636.1,-421.68 2625.69,-419.67 2626.71,-426.6"/>
</g>
</g>
</svg>
